<?xml version="1.0" standalone="no"?>
<!DOCTYPE svg PUBLIC "-//W3C//DTD SVG 1.1//EN" "http://www.w3.org/Graphics/SVG/1.1/DTD/svg11.dtd" >
<svg xmlns="http://www.w3.org/2000/svg" xmlns:xlink="http://www.w3.org/1999/xlink" version="1.1">
<metadata></metadata>
<defs>
<font id="the_woodlandsregular" horiz-adv-x="1222" >
<font-face units-per-em="2048" ascent="1638" descent="-410" />
<missing-glyph horiz-adv-x="614" />
<glyph horiz-adv-x="0" />
<glyph horiz-adv-x="682" />
<glyph unicode=" "  horiz-adv-x="614" />
<glyph unicode="&#x09;" horiz-adv-x="614" />
<glyph unicode="&#xa0;" horiz-adv-x="614" />
<glyph unicode="!" horiz-adv-x="1007" d="M310 -54.5q8 -15.5 40 -19.5q9 -3 21 0h14q33 3 49 25.5t10 56.5q-4 22 -20 25q-84 19 -111 -43q-11 -29 -3 -44.5zM406 276q-3 -43 15.5 -59t67.5 -12q23 3 37 31q44 94 66 176q86 326 174 651q27 103 35 137q9 45 -37 45q-40 0 -55 -28q-1 -2 -9.5 -22.5t-13.5 -29.5 q-127 -321 -246 -725q-13 -51 -34 -164z" />
<glyph unicode="&#x22;" horiz-adv-x="663" d="M209 1157q-8 -86 4 -258q1 -18 12.5 -23t36.5 1q23 3 27 38q24 207 24 211q2 22 -2 66q0 24 -20 33q-21 8 -46.5 -4t-31.5 -33q-4 -20 -4 -31zM342 883q0 -2 1 -7t1 -8q6 -22 31 -22q5 0 14.5 1t11.5 1q32 8 44.5 22t11.5 48q-3 0 -1 68l1 67q0 17 1 48t1 56t-2 47 q-3 70 -70 39q-19 -8 -29 -24q-6 -11 -16 -50q-26 -107 0 -286z" />
<glyph unicode="#" horiz-adv-x="1587" d="M205 84h194q-45 -118 -59 -172q-3 -16 1 -37t13 -27q29 -14 76 2q23 8 47 44q17 23 47.5 73.5t46.5 73.5q31 44 56 49q25 3 52 3.5t67 -0.5t59 -1q-7 -21 -19.5 -55t-17.5 -51q-23 -82 -27 -103q-8 -41 7.5 -57.5t56.5 -7.5q17 4 35.5 19t27.5 30q10 18 107 223 q30 3 110 4t141.5 11t119.5 40q-40 27 -86 37.5t-85 7.5t-84.5 -3.5t-84.5 3.5q8 19 27 68.5t33 82t30 62.5q14 28 69 41q26 4 76 7.5t70 5.5q15 1 40.5 9t30.5 9v23q-30 19 -72 20.5t-86.5 1t-74.5 12.5q6 16 27 71t30 83q3 14 -1 32.5t-13 22.5q-12 7 -29 4.5t-30 -10.5 q-21 -10 -41 -47q-15 -21 -41.5 -64t-40.5 -65q-26 -37 -37 -37q-33 -2 -205 -2q39 159 45 199q2 9 0 19.5t-6.5 24t-5.5 21.5q-8 -3 -24 -7t-27.5 -8t-20.5 -9q-17 -13 -37 -53q-33 -67 -65 -146q-14 -32 -35.5 -46.5t-56.5 -14.5q-96 3 -226 -8q-12 0 -25 -2.5t-29.5 -7.5 t-25.5 -7l4 -29q26 -2 141 -10t181 -14q-4 -10 -27.5 -59.5t-31.5 -75.5q-21 -73 -64.5 -107t-118.5 -30q-74 4 -108 -66zM633 178q11 28 27.5 73.5t30.5 81.5t28 68q5 10 18.5 19.5t24.5 9.5q28 2 182 2q-13 -31 -45 -107.5t-49 -115.5q-5 -10 -16 -19.5t-19 -9.5 q-28 -2 -182 -2z" />
<glyph unicode="$" horiz-adv-x="1060" d="M205 -109q14 -26 38 -41t60.5 -27t52.5 -20q-15 -26 -18 -34q-30 -82 -33 -101q-6 -24 6 -37.5t37 -15.5q58 0 72 53q5 22 13.5 65.5t12.5 63.5l41 6q214 37 336 248q50 85 25 193q-21 93 -96 188q-7 8 -93 100q-7 7 -21 20.5t-24.5 24t-19.5 21.5q-22 26 -22.5 48.5 t18.5 51.5q52 77 141 52q37 -11 60 2q12 6 13.5 17t-9.5 19q-7 4 -22.5 11.5t-22.5 11.5q26 81 38 131q5 29 5 72q1 22 -9.5 29.5t-31.5 7.5q-25 0 -39 -21q-4 -6 -11.5 -16.5t-12.5 -16.5t-10 -15.5t-9 -18.5q-13 -29 -60 -158q-6 -4 -12 -6q-61 -22 -78 -33 q-147 -84 -28 -207q15 -16 43.5 -43.5t35.5 -34.5q75 -72 115 -153q45 -95 35 -166q-35 -212 -234 -299q-81 -34 -178 10q-17 7 -30 23q-22 25 -35 24t-39 -29z" />
<glyph unicode="%" horiz-adv-x="1460" d="M205 471q6 71 33 139q51 120 143 226q67 77 149 88q32 5 76 -2q49 -9 49 -62v-80q33 6 58 15t109.5 40t131.5 48l21 8q19 20 36 22t48 -12q2 -11 -0.5 -20.5t-10 -24t-8.5 -16.5q-90 -176 -135 -262q-196 -382 -299 -629q-7 -20 -39 -82q-17 -34 -43 -47 q-38 -22 -59 -16.5t-49 44.5q24 81 114 283q142 305 385 682l-61 -29q-101 -50 -201 -61l-61 -139q-43 -91 -96 -144q-90 -90 -226 -57q-68 18 -65 88zM324 494q-8 -40 14 -62q9 1 18 5t14.5 7t14.5 11.5t12 11t13.5 14.5t11.5 13q94 105 131 235q-17 10 -23 16 q-22 15 -20 33q5 21 29 25q1 0 61 10q-1 9 -2 25t-2 24q-10 47 -49 25q-33 -20 -64 -51q-75 -86 -123 -215q-7 -18 -13 -39t-12.5 -47.5t-10.5 -40.5zM805 -37q6 71 33 139q51 120 143 226q67 77 149 88q32 5 76 -2q49 -9 49 -62v-80l-2 -57l-61 -139q-43 -91 -96 -144 q-90 -90 -226 -57q-68 18 -65 88zM924 -14q-8 -40 14 -62q9 1 18 5t14.5 7t14.5 11.5t12 11t13.5 14.5t11.5 13q94 105 131 235q-15 9 -23 17q-22 15 -20 32q5 21 29 25q1 0 61 10q-1 9 -2 25t-2 24q-10 47 -49 25q-33 -20 -64 -51q-73 -84 -122 -215q-5 -14 -37 -127z" />
<glyph unicode="&#x26;" horiz-adv-x="1429" d="M315 166q-17 -75 0.5 -142.5t58 -112t92 -73t105.5 -35.5q134 -21 263 39q111 51 161 181q26 72 -24 122q-18 18 -86 72q-4 4 -19 16q2 0 29 7q125 28 133 30q90 27 166 113q46 52 20 125q-8 23 -21 28.5t-42 -1.5q20 -91 -74 -164q-77 -61 -162 -72l-59 -10 q-84 -11 -137 -39q-74 -38 -92 -121q-9 -39 32 -45q49 -9 60 39q18 75 92 92l76 -82q33 -36 14 -88q-2 -4 -7.5 -15.5t-8.5 -17.5q-56 -101 -185 -141q-100 -33 -172 49q-105 122 -63 287q25 99 100 186q34 40 84 64q43 21 78 4q44 -19 88 -8q6 3 27 18q-15 36 -66 47 q-57 12 -121 72q-32 32 -41 76q-22 100 28 202t142 148q76 39 152 -15q55 -40 43 -106q-15 -73 -68 -129q-16 -14 -47.5 -41.5t-46.5 -42.5t-29 -25q25 -14 56 -6q80 27 129 97q50 81 53 86q33 65 15 120.5t-83 87.5q-82 43 -186 17q-132 -37 -217 -166q-65 -98 -53 -217 q9 -76 65 -123q9 -9 45 -37q-8 -4 -20 -12q-220 -83 -277 -338z" />
<glyph unicode="'" horiz-adv-x="415" d="M352 1157q-8 -86 4 -258q1 -18 13 -23t37 1q22 2 26 38q2 16 11.5 93t13.5 118q2 22 -2 66q0 24 -21 33q-21 8 -46.5 -4t-31.5 -33q-4 -20 -4 -31z" />
<glyph unicode="(" horiz-adv-x="970" d="M358 725q-321 -537 25 -1012q42 -59 91 -89.5t128 -26.5q-136 183 -186 415q-49 215 12 432q38 137 154 416q20 50 49.5 93.5t75 88t73.5 69t88 73.5q-74 -19 -147 -66q-212 -133 -363 -393z" />
<glyph unicode=")" horiz-adv-x="1052" d="M205 -436q52 -15 68 -13.5t49 27.5q128 104 186 154q226 198 276 426q50 223 60 334q30 356 -213 620q-38 40 -75.5 58.5t-94.5 9.5q298 -261 219 -631q-31 -146 -88 -385q-57 -238 -242 -420q-44 -44 -106 -121q-16 -20 -39 -59z" />
<glyph unicode="*" horiz-adv-x="743" d="M205 836q11 -16 27 -22t38 -7t33 -4v-31q17 -2 35 -6q25 -39 41.5 -44t54.5 13v86q30 2 68 10q9 2 12.5 2.5t9 6t6.5 14.5q-13 8 -38.5 8.5t-36.5 3.5l84 97q-18 11 -34.5 11t-27.5 -6t-26.5 -16t-24.5 -14l-8 14q-19 28 -47.5 38t-59.5 -1q-24 -10 -24 -35q0 -17 4 -45 q2 -14 10 -47q-4 -1 -42.5 -2.5t-53.5 -23.5z" />
<glyph unicode="+" horiz-adv-x="921" d="M205 287q18 -22 44.5 -28t49 -2.5t49.5 -2.5q-6 -64 -6 -66q-7 -52 2 -182q3 -26 13.5 -35.5t35.5 -11.5q11 0 43 8q45 138 53 205q2 24 10 68t9 51q13 4 39 8q4 1 38 4.5t52 7.5q47 10 63 24q10 9 17 21q-28 18 -58.5 24.5t-78 7t-62.5 1.5q6 49 14 139q7 47 7 82 q-2 19 -10.5 28.5t-28.5 10.5q-42 3 -62 -35q-28 -48 -51 -147l-25 -109q-17 -7 -51 -17t-60 -22t-46 -32z" />
<glyph unicode="," horiz-adv-x="696" d="M309 -117q-11 -47 41 -47q30 0 45 27q4 6 26.5 40t33.5 52q20 34 32 63q11 33 -24 41q-49 10 -78 -22q-53 -61 -76 -154z" />
<glyph unicode="-" d="M311 344q13 -40 45 -43q54 -6 56 -6q213 -13 244.5 -14t244.5 2q31 1 89.5 7t76.5 7q42 12 51.5 35t-10.5 67q-9 24 -39 27q-105 13 -188 8q-111 -5 -197 -16.5t-199 -16.5q-24 -2 -71 -4t-70 -4q-45 -5 -33 -49z" />
<glyph unicode="." horiz-adv-x="659" d="M307 -20q-6 -39 31 -48q15 0 31 -2q2 1 10.5 3.5t17 6.5t13.5 9q21 21 39 57q10 22 3 33t-32 16q-42 7 -73.5 -15.5t-39.5 -59.5z" />
<glyph unicode="/" horiz-adv-x="847" d="M205 -76q28 -39 49 -44.5t59 16.5q26 13 43 47q32 62 39 82q101 242 299 628q45 86 135 262q2 4 7 13.5t7.5 15.5t4 15t0.5 18q-32 14 -50 11.5t-36 -23.5q-19 -19 -53 -68q-239 -370 -390 -690q-90 -202 -114 -283z" />
<glyph unicode="0" horiz-adv-x="591" d="M18 186q-39 -153 5 -270q42 -114 161 -86q49 13 97 64q69 78 125 178q88 157 155 381q31 99 31 266q0 5 -4 29l-43 -7q0 1 -7 19t-12 26q-17 41 -49.5 56.5t-73.5 1.5q-36 -10 -73 -43q-58 -53 -117 -148q-137 -234 -195 -467zM135 -53q-19 98 4 217q59 293 232 571 q35 56 69 78q27 -9 35 -43q16 -52 24 -89.5t8.5 -87t-13.5 -93.5q-56 -192 -105 -295q-68 -140 -158 -248q-49 -54 -73 -70q-19 19 -23 60z" />
<glyph unicode="1" horiz-adv-x="389" d="M41 -180q-3 -22 7 -31t32 -6q21 5 31 31q10 30 46 130.5t54 155.5q127 420 244 705q7 15 14 45q9 36 -31 39q-20 2 -47 -17q-39 -30 -108 -73q-18 -12 -53.5 -33t-51.5 -31q-18 -11 -67 -45q-3 -3 -7.5 -12t-7.5 -12q29 -16 66 2l117 61q5 4 11.5 7.5t16.5 9.5t17 10 l-97 -236q-127 -318 -186 -700z" />
<glyph unicode="2" horiz-adv-x="651" d="M-55 -100q3 -12 24 -21q38 -15 94 -4q95 24 242 31q104 4 154 8q68 8 100 33q2 2 16.5 10.5t19 16.5t-0.5 20q-3 6 -7.5 9t-12.5 3.5t-13 0.5t-15 -1.5t-14 -1.5l-36 -6t-47 -6q-163 -15 -199 -17l-141 -12q8 12 28 47q141 208 203 305q89 140 129 258q17 53 20 99 q9 66 -59 78q-34 4 -51 0q-147 -29 -246 -158q-3 -3 -5 -7t-4 -9.5t-3 -8.5q27 -24 53 -2q6 4 31 29q65 58 141 96q5 2 17 5.5t20 6.5q-4 -29 -6 -34q-35 -103 -62 -156q-101 -211 -245 -420q-45 -67 -115 -162q-13 -18 -10 -30z" />
<glyph unicode="3" horiz-adv-x="507" d="M-182 -254q17 -25 63 -25q140 -6 250 54q239 137 289 415q13 77 -21 133.5t-110 82.5q-40 13 -58 18q61 85 111 127q66 56 94 125q21 50 4.5 86t-67.5 53q-4 1 -12.5 2t-12.5 2q-102 14 -205 -47q-26 -13 -26 -37q32 -20 67 0q61 29 99 41q28 7 42 -5.5t11 -41.5 q-4 -25 -14 -43q-16 -29 -37 -53q-110 -122 -158 -178q-3 -4 -9.5 -9.5t-10 -9.5t-8.5 -10.5t-4 -12t3 -14.5q4 -10 12.5 -15t25 -7.5t20.5 -3.5q6 0 10 -2q62 -8 91 -44.5t22 -97.5q-5 -43 -23 -98q-75 -212 -244 -324q-86 -56 -149 -38q-30 7 -45 -23z" />
<glyph unicode="4" horiz-adv-x="579" d="M2 281q-13 -47 29 -64q35 -14 63 -14q22 -1 63 0.5t54 1.5q4 1 10 1t14 -0.5t13 -0.5q-10 -35 -12 -39q-62 -172 -95 -256q-25 -73 -10 -123q33 -18 57 12q42 50 64 121q74 202 98 273q14 37 56 43q13 1 26 4.5t30 9.5t25 8q23 8 15 29q-14 13 -54 6t-57 -2q6 12 15 33 t10 24l147 340q2 4 6.5 13.5t6.5 13.5t4.5 14t-0.5 16q-24 6 -33.5 4t-20.5 -18q-54 -65 -77 -110q-42 -81 -148 -297q-4 -8 -11 -25t-11 -25l-74 -6q-5 0 -21.5 -3t-28.5 -2.5t-24 5.5q7 22 27 72l141 330q5 10 10.5 28t7.5 23q-31 25 -59.5 23.5t-48.5 -29.5 q-28 -44 -43 -80q-30 -62 -82.5 -177t-73.5 -159q-1 -3 -4 -9t-4 -9z" />
<glyph unicode="5" horiz-adv-x="632" d="M-41 -121q16 -19 21.5 -23t23.5 -8q190 -53 322 68q95 88 151 225q9 26 12 60q8 68 -27 114t-102 56q-68 11 -114 4h-37q4 8 9.5 22t8.5 19q114 206 121 219q10 20 39 27q35 9 103.5 28.5t103.5 28.5q37 9 110.5 26.5t110.5 26.5q4 1 16.5 3.5t18.5 4.5t14.5 7.5 t14.5 13.5q-14 18 -48 14q-99 -13 -190 -27q-111 -18 -289 -73q-25 -8 -38 -14t-27 -21t-17 -37q0 -2 -2 -4.5t-2 -3.5l-147 -234q-1 -2 -11 -18.5t-14 -24.5q-9 -26 17 -36q31 -14 69 -7q76 14 96 15q40 2 65.5 -19.5t29.5 -60.5q5 -36 -9 -84q-55 -156 -196 -272 q-45 -36 -105 -27q-11 2 -32 7t-33 7q-3 0 -9 2t-9.5 2.5t-9 -1t-9.5 -5.5z" />
<glyph unicode="6" horiz-adv-x="473" d="M-14 -66q16 -75 84 -92q44 -10 75 -8q62 6 115 51.5t79.5 103t22.5 103.5q-6 70 -69 70q-117 -3 -195 -103q-20 -26 2 -41q19 -13 39 11q2 2 8 14q40 56 125 86l9 -12q27 -66 -16.5 -140t-119.5 -98q-27 -9 -41 12q-19 35 -24 56q-5 30 -2 71q6 105 47 201 q99 258 299 494q56 69 123 110q2 1 8 13q-29 7 -47 5t-41 -18q-81 -56 -111 -88q-181 -181 -297 -438q-49 -104 -65 -193q-22 -102 -8 -170z" />
<glyph unicode="7" horiz-adv-x="589" d="M0 205q6 0 15 -0.5t15 -0.5t11 1q152 42 201 53q8 3 39 10l-17 -39q-8 -17 -24.5 -51.5t-24.5 -52.5q-43 -91 -61 -188q-3 -25 5.5 -34t33.5 -7q28 0 43 34q21 40 81 153.5t91 176.5q34 74 98 84q35 9 45 27q-9 13 -21 13.5t-27.5 -3.5t-25.5 -2q4 13 11 25.5t16.5 28 t13.5 22.5l111 200q8 17 22 62q6 38 -28 53q-37 18 -76 6q-33 -8 -103 -28q-114 -36 -194 -58q-23 -6 -69 -16.5t-68 -16.5q-31 -4 -37 -24q15 -10 20 -10q19 -2 56 2q191 33 342 80l34 8q-5 -8 -9 -19.5t-5 -13.5q-20 -35 -81 -142.5t-93 -166.5q-15 -34 -57 -43 q-10 -3 -199 -60q-22 -7 -70 -32q-3 -2 -5 -6t-4.5 -12t-4.5 -13z" />
<glyph unicode="8" horiz-adv-x="526" d="M-100 -111q-15 -57 43 -82q9 -5 32 -10q100 -20 185 37q81 57 145 156q54 84 98 258q30 121 3 217q-8 32 12 61q14 20 82 117q2 3 4.5 12t5.5 15q-18 -2 -30 -11t-23 -25t-15 -20q-7 -7 -17 -20.5t-20.5 -24.5t-23.5 -18q-38 62 -41 119q-3 60 49 106q35 31 70 19 q6 -2 24 -2q1 0 6.5 0.5t7.5 1t7 1.5t7 2.5t5.5 3t5.5 4.5t4 7q7 20 -32 35l-19 6q-137 19 -225 -66q-63 -60 -57 -137q1 -13 4.5 -27t9.5 -34t8 -27q16 -48 39 -110q20 -60 -25 -111q-101 -114 -215 -258q-35 -37 -75 -102q-22 -39 -39 -93zM10 -94q16 37 37 67 q33 50 98 143t80 115q1 2 6.5 6t8.5 7q0 -21 -2 -29q-12 -33 -33 -98.5t-33 -98.5q-32 -89 -96 -141q-35 -31 -62 -29q-17 19 -4 58z" />
<glyph unicode="9" horiz-adv-x="489" d="M61 -123q-3 -39 37 -47q20 -3 39 0q34 7 41 37q4 16 47 125q9 19 32 63t34 68q67 139 151 321q53 115 93 215q13 32 16 68q3 56 -49 53q-55 -6 -103 25q-6 4 -18 8q-81 22 -167.5 -14.5t-127.5 -108.5q-9 -18 -10 -22q-15 -56 35 -74q39 -16 86 -10q60 8 122 45 q3 1 21 9.5t33 14.5q-8 -14 -13 -24q-90 -173 -145 -285q-71 -146 -98 -246q-8 -30 -23.5 -90t-23.5 -90q-1 -7 -4.5 -20.5t-4.5 -20.5zM170 668q44 87 135 114q56 14 105 -32q-23 -40 -101.5 -81t-136.5 -42q-14 14 -2 41z" />
<glyph unicode=":" horiz-adv-x="659" d="M307 -20q-6 -39 31 -48q15 0 31 -2q2 1 10.5 3.5t17 6.5t13.5 9q21 21 39 57q10 22 3 33t-32 16q-42 7 -73.5 -15.5t-39.5 -59.5zM307 356q-6 -38 31 -47q15 0 31 -2q2 1 10.5 3.5t17 6.5t13.5 9q21 21 39 57q10 22 3 33t-32 16q-42 7 -73.5 -16t-39.5 -60z" />
<glyph unicode=";" horiz-adv-x="696" d="M309 -117q-11 -47 41 -47q30 0 45 27q4 6 26.5 40t33.5 52q20 34 32 63q11 33 -24 41q-49 10 -78 -22q-53 -61 -76 -154zM340 356q-6 -38 31 -47q14 0 30 -2q2 1 10.5 3.5t17 6.5t13.5 9q21 21 39 57q10 22 3.5 33t-31.5 16q-42 7 -73.5 -16t-39.5 -60z" />
<glyph unicode="&#x3c;" horiz-adv-x="923" d="M204.5 364q-1.5 -13 20.5 -32q32 -27 49 -33q183 -82 304 -131q14 -5 28.5 -8t40.5 -5t31 -3q27 -4 41 16q3 23 -23 41q-48 26 -59 31q-48 20 -136.5 54t-123.5 48q-4 1 -25 18q12 7 38 23t40 23q26 14 90 48.5t98 53.5q2 1 6.5 3t6.5 3t6 4t6 5.5t4 7t2 10.5 q-4 1 -12 4.5t-12 3.5q-32 -5 -43 -10q-64 -26 -180.5 -75.5t-161.5 -68.5l-11 -4q-23 -14 -24.5 -27z" />
<glyph unicode="=" horiz-adv-x="1116" d="M207 469q13 -40 45 -43q54 -6 55 -6q97 -6 151.5 -13t62 -6t151.5 2q31 1 88.5 7.5t77.5 7.5q42 12 51.5 35t-10.5 67q-9 24 -39 27q-105 13 -189 8q-111 -5 -134 -9t-136 -9q-23 -2 -70 -9.5t-71 -9.5q-45 -5 -33 -49zM219 256q13 -40 45 -43q54 -6 55 -6 q121 -8 174.5 -7t174.5 -10q160 6 176 7q42 12 51.5 35t-10.5 67q-9 24 -39 27q-105 13 -189 8q-111 -5 -131 -10.5t-133 -10.5q-24 -2 -71 -4t-70 -4q-45 -5 -33 -49z" />
<glyph unicode="&#x3e;" horiz-adv-x="933" d="M205 172q4 -2 17 -11t20 -11q47 -15 94 6l256 123q18 9 100 59q6 4 12.5 9t13.5 12t11 10q-16 33 -33 43l-34 18q-116 45 -289 115q-13 5 -54 10q-31 4 -38 -16q12 -19 19 -25.5t24 -13.5q27 -13 110 -49q8 -3 41.5 -16t55.5 -22.5t44 -21.5q-9 -4 -25 -13.5t-24 -12.5 q-18 -9 -100 -50.5t-125 -64.5q-26 -13 -37 -19.5t-29 -22.5t-30 -36z" />
<glyph unicode="?" horiz-adv-x="1097" d="M314.5 -69.5q14.5 -18.5 72.5 -20.5q38 0 53 16t17 56q1 44 -30 65t-71 2q-23 -13 -37 -41q-19 -59 -4.5 -77.5zM378.5 257q0.5 -12 2.5 -27t6 -29q1 -3 3.5 -17t7.5 -21t16 -11q34 -14 63 -2q19 9 23 18q4 8 18 37t21 49t10 41q4 28 16 111.5t17 130.5q3 36 32 65 q85 92 144 164q74 92 112 192q28 73 21 129q-12 89 -105 101q-57 6 -108 -14q-106 -42 -170 -101q-22 -22 -45 -55q-18 -32 -8 -53q22 -13 49 14q63 61 188 125q8 4 25.5 11t25.5 11q18 -24 11 -51q-3 -25 -13 -59q-36 -114 -131 -234q-31 -39 -100 -112q-70 -73 -80 -150 q-4 -28 -17.5 -80t-17.5 -73q-1 -6 -5 -26t-5.5 -28.5t-4 -26t-2 -29.5z" />
<glyph unicode="@" horiz-adv-x="1435" d="M322 236q-29 -86 2 -175q37 -111 147 -131q127 -23 227 -8q138 21 195 115q3 4 12.5 16.5t14.5 20.5q9 14 14.5 21.5t16 15t24.5 10.5q13 2 33 22q131 131 186 248q37 79 37 162q-2 4 -2 25q-3 131 -131 178q-83 31 -191 28q-181 -10 -284 -116q-96 -92 -164 -174 q-80 -100 -137 -258zM473 262q6 28 6 29q34 113 92 184q119 142 156 182q97 105 266 78q111 -15 133 -131q15 -93 -18 -176q-46 -109 -125 -201q-5 -6 -16 -16t-15 -14q-8 20 0 53q1 9 5.5 31t5.5 34q2 12 -6 21t-21 10q-44 8 -68 -12q-60 -52 -94 -78l-143 -111 q-4 -4 -10.5 -7t-14.5 -6t-12 -5q-12 24 0 61q47 137 139 222q48 51 107 41q5 -15 16 -37q14 -34 51 -25q35 9 29 47q-6 43 -53 56q-68 15 -160 -9q-99 -27 -195 -147q-8 -10 -26 -35.5t-29 -38.5zM483 70q2 2 4 2q114 -47 236 43q16 11 42 33.5t32 27.5q12 9 26 23 q7 -34 20.5 -56t41.5 -30q-71 -105 -187 -129q-77 -16 -141 0q-65 14 -74 86z" />
<glyph unicode="A" horiz-adv-x="1136" d="M2 -150q8 -72 48.5 -118t109.5 -56q27 -3 53 -3q103 0 182 51q74 55 113 94q173 170 338 405l31 41q2 -16 -9 -35q-66 -144 -108 -305q-15 -73 -15 -117v-5q0 -50 56 -56q15 -2 29 -2q55 0 92 31q65 51 106 92q29 30 105 125q193 247 266 342q14 19 33 49q3 4 3.5 13 t-1.5 10q-14 10 -27 6q-22 -13 -39 -33l-235 -275q-132 -151 -226 -233q-5 -5 -12.5 -11t-18.5 -14t-18 -14q1 7 1.5 15.5t1 13t1.5 8.5q36 166 129 385q18 45 57.5 135t57.5 135q12 24 20 64q6 32 -24 35h-6q-31 0 -52 -27q-58 -74 -114 -150q-174 -244 -488 -565 q-65 -62 -127 -110q-31 -25 -79 -41q-26 -9 -50 2t-34 37q-14 36 -17 67q-1 15 -1 30q0 71 26 161q91 297 284 565q71 96 131 147q62 54 101 64q34 -16 41 -64q3 -18 3 -38q0 -36 -9 -78q-22 -100 -86 -209l-7 -10.5t-7 -11t-4 -12.5t1 -15q18 -9 33 -9q21 0 35 17 q49 61 57 78q48 92 70 204q4 20 4 51q0 21 -2 46q-6 73 -80 94q-28 7 -56 7q-57 0 -116 -30q-86 -44 -174 -139q-125 -142 -240 -352q-87 -158 -121 -301q-18 -76 -18 -140q0 -21 2 -41z" />
<glyph unicode="B" horiz-adv-x="1048" d="M2 -195q-6 -29 3.5 -41.5t39.5 -15.5h8q53 0 82 39q18 23 25 33l338 487q192 274 366 469q94 108 201 180l10.5 7t12 7.5t13 5t17.5 1.5q-5 -47 -8 -57q-15 -43 -37 -89q-56 -103 -186 -260q-119 -142 -234 -241q-1 -1 -10.5 -8.5t-12.5 -10.5t-7 -11t-5 -17 q17 -21 60 -21q11 1 32 5t33 5q47 7 82 7q59 -3 59 -56q0 -5 -1 -10q-5 -31 -19 -70q-69 -191 -264 -311q-14 -9 -55 -27q-3 -1 -14 -2.5t-19 -3.5q-10 57 -10 62q0 130 51 229q-30 9 -57 -18q-27 -32 -33 -49q-47 -124 -57 -164q-5 -20 -5 -36q0 -66 84 -75q18 -2 35 -2 q69 0 129 29q217 97 314 305q19 44 34 121q2 11 2 21q-1 28 -13 46q-16 26 -58 41q-50 19 -115 19q-32 0 -57 2q8 7 22 20.5t21 18.5q214 184 331 389q22 37 60 133q8 24 8 61q0 50 -49 62q-35 7 -59 -2q-39 -9 -68 -35q-120 -90 -166 -133q-139 -132 -328 -375 q-26 -33 -305 -408q-19 -27 -35 -45q0 5 -1 10l-1 5q9 18 15 39q94 237 278 528q42 67 125 217q23 41 23 59q-3 2 -7 7t-6 6q-25 13 -51 13q-9 0 -19 -1q-36 -6 -59 -35q-42 -56 -77 -119q-209 -366 -373 -823q-18 -58 -33 -117z" />
<glyph unicode="C" horiz-adv-x="747" d="M4 31q14 -130 112 -199q65 -46 142 -46q38 0 80 11q70 18 151 99q41 42 78 102.5t53 95t52 117.5v29q-20 -4 -25 -8t-14 -21q-84 -143 -221 -264q-50 -43 -105 -78q-25 -17 -40.5 -15.5t-37.5 21.5q-51 43 -73 109q-11 39 -11 84q0 56 17 120q104 372 330 635 q40 50 79 86q71 65 168 80q10 1 19 1q28 0 50 -14q29 -19 36 -58q3 -18 3 -35t-3 -35q-8 -62 -51 -133q-75 -127 -205 -207q-61 -41 -123 -55v-13q29 -12 31 -12q9 -1 17 -1q33 0 71 15q224 88 323 308q19 43 29 96q3 20 3 37q0 49 -23 83q-32 48 -103 64q-21 6 -45 6h-18 q-160 0 -287 -104q-41 -34 -92 -88q-214 -230 -324 -518q-46 -120 -46 -237q0 -29 3 -58z" />
<glyph unicode="D" horiz-adv-x="899" d="M0 -195q34 -19 59 -19q6 0 12 1q28 6 50 45q11 22 35 62q127 206 157 260q144 260 314 487q93 130 176 209q60 56 115 76q12 5 34 8q10 -22 10 -49q0 -17 -4 -37q-11 -50 -30 -109q-52 -156 -185 -383q-101 -173 -307 -321q-5 -3 -15 -11t-16.5 -12.5t-17 -10.5t-20.5 -9 q-12 42 -13 45q-56 -22 -71 -62q-13 -33 20 -45q19 -6 37 -6q22 0 43 8q50 22 88 48q139 95 188 131q302 227 390 641q9 55 9 96q0 25 -3 45q-7 40 -28.5 58.5t-61.5 21.5h-5q-38 0 -98 -25q-103 -44 -174 -127q-143 -164 -194 -235q-51 -72 -226 -344q-2 -3 -9 -14.5 t-14.5 -20.5t-17.5 -17q4 14 15 48q53 166 145 438q10 31 29.5 94.5t29.5 95.5q12 41 -2 62q-36 14 -51 -21q-4 -7 -11 -22.5t-11 -22.5q-206 -453 -365 -1018z" />
<glyph unicode="E" horiz-adv-x="667" d="M2 18q-2 -16 -2 -30q0 -117 139 -140h21q16 -1 32 -1q91 0 179 44q89 42 227 144q1 1 7 5t8 5.5t6.5 6t6.5 7.5t4.5 8t2.5 11q-16 14 -34 14q-14 0 -30 -8q-19 -10 -91 -51.5t-113 -61.5q-50 -27 -138 -53q-18 -6 -32 -6q-46 0 -50 63q-3 18 -3 34q0 22 5 42 q34 145 107 285q10 23 41 33q180 69 256 100q5 1 22 18q-25 9 -42.5 7t-86.5 -23q-13 -4 -40.5 -13t-50.5 -15t-46 -9q27 56 76.5 148.5t88.5 171t67 151.5q2 0 12 3t16 3q62 13 150 27q13 3 39.5 8t40.5 8q30 9 30 31q-11 17 -26 20t-41 1q-21 -2 -61.5 -5.5t-59.5 -5.5 q-107 -8 -170 -28q-21 -9 -39 -21q-4 -2 -4 -12l2 -6q6 -3 17 -11.5t16 -11.5l-8 -16q-21 -33 -88 -135.5t-103 -159.5q-149 -240 -229 -457q-27 -74 -31 -119z" />
<glyph unicode="F" horiz-adv-x="544" d="M0 -143q2 -22 10.5 -32t28.5 -13q7 -1 12 -1q33 0 43 29q33 87 43 109q28 68 83.5 191.5t70.5 158.5q9 25 22 47q6 1 17 2t16 2l172 19q44 7 62 39q-18 10 -36.5 12t-44 -1t-34.5 -3q-7 0 -61 -4t-62 2l6 24q73 178 94 226q40 91 86 178q41 80 116 80q11 0 22 -2 q64 -8 153 -11q3 -1 7 0t10 3t12 3q-29 20 -57 23q-28 2 -84.5 5t-83.5 5q-7 0 -13 1q-98 0 -161 -87q-70 -92 -105 -155q-148 -269 -274 -566q-43 -103 -68 -260q-2 -8 -2 -24z" />
<glyph unicode="G" horiz-adv-x="714" d="M0 12q0 -62 35.5 -107.5t95.5 -58.5q37 -8 72 -8q94 0 174 56q118 85 168 212l55 144q35 12 75.5 30.5t63 30.5t72.5 40.5t63 35.5q9 7 21 27q-36 20 -53 16q-33 -11 -39 -14q-148 -69 -246 -97q-19 -4 -33 -12q-7 -3 -26 -22l26 -33q-7 -16 -21.5 -48.5t-21.5 -49.5 q-68 -143 -211 -228q-6 -4 -32 -14q-20 -7 -33.5 -3.5t-24.5 21.5q-23 38 -23 79q0 9 1 18q7 60 16 96q11 44 66 160q105 227 288 432q82 92 154 139q22 14 78 39q27 14 48.5 0t22.5 -49v-12q0 -41 -18 -87q-41 -96 -108 -172q-11 -11 -39 -43q30 -14 53 9q137 117 174 268 q4 18 4 33q0 32 -17 54q-25 33 -81 36q-10 1 -20 1q-41 0 -91 -16q-75 -27 -151 -84q-156 -108 -310 -305q-144 -188 -204 -383q-23 -71 -23 -131z" />
<glyph unicode="H" horiz-adv-x="765" d="M0 250l13 -6.5t14 -5.5q40 -3 57.5 -0.5t58 14.5t60.5 16q-67 -224 -70 -237q-41 -149 -41 -219q0 -14 2 -25q37 -10 50.5 -4.5t25.5 35.5q49 115 70 180q18 55 49 158.5t37 122.5q6 22 17 34t32 19q57 17 225 74q15 4 31 6q-3 -8 -7 -20t-6 -17q-7 -18 -22.5 -54 t-22.5 -55q-93 -247 -131 -358q-10 -28 -24 -123q-2 -6 1 -15t7 -12q15 -13 45 -8.5t41 21.5q46 89 57 118q27 69 78 226q74 225 254 659l107 248q1 2 3 7.5t3.5 9t3 8.5t1.5 9t-0.5 9t-2.5 10q-31 8 -42 5.5t-26 -21.5q-20 -27 -37 -55q-109 -188 -215 -443 q-18 -48 -73 -67q-37 -11 -110 -35t-110 -35h-30q6 18 18 53.5t21.5 62t19.5 50.5q33 81 158 450q4 13 8 43q-35 14 -51 10.5t-29 -30.5q-60 -120 -92 -203q-95 -244 -166 -446q-14 -42 -55 -56q-69 -24 -158 -67q-13 -6 -19 -9t-14.5 -11.5t-13.5 -20.5z" />
<glyph unicode="I" horiz-adv-x="563" d="M0 -129q11 -18 41 -18q8 -1 16 -1q34 0 78 17q76 27 176 47q38 7 125 41q54 21 62 68q-11 12 -23.5 14t-19 -0.5t-23.5 -9.5q-60 -31 -127 -31l6 18q12 35 37.5 104.5t38.5 104.5q37 106 109.5 319.5t109.5 319.5q5 24 31 37l139 62q3 1 13.5 6t19.5 10h-2 q-73 1 -275 -71q-205 -72 -258 -115q10 -17 35 -13q15 3 56 17l135 47l-17 -43q-102 -219 -170 -414q-11 -33 -35.5 -102.5t-38.5 -111t-30 -101.5t-25 -113q-20 -4 -28 -8q-85 -29 -119 -43q-11 -6 -17 -9t-12.5 -11t-7.5 -17z" />
<glyph unicode="J" horiz-adv-x="610" d="M10 -47q-11 -24 -11 -49q0 -31 17 -64q32 -60 90 -67q15 -3 31 -3q41 0 84 17q85 30 154 96q102 102 157 269q41 129 68 256q19 94 29 164t15 166q1 24 1 47q0 67 -10 120q-1 3 2 13q8 4 24.5 11t24.5 11q86 36 129 57q4 2 8.5 5.5t9.5 9.5t7 8q-21 24 -54 20 q-38 -4 -55 -10q-234 -79 -325 -112q-19 -7 -39.5 -17t-45 -23t-38.5 -20q-5 -2 -10.5 -6t-10.5 -9t-8 -7q6 -21 33 -29q13 -2 26 -2q31 0 58 10l114 43q10 4 36.5 15t43.5 18q-4 -55 -6 -62q-10 -79 -24 -149q-54 -284 -134 -512q-55 -152 -118 -246q-53 -72 -127 -104 q-14 -6 -27 -6q-23 0 -43 20q-41 48 -41 100v11t1 17t1 17q-31 -11 -37 -24z" />
<glyph unicode="K" horiz-adv-x="608" d="M-0.5 -213q-0.5 -5 1.5 -10t5 -10q29 -11 49 4q10 20 11 24q26 79 72.5 228t66.5 213q5 19 9.5 28.5t17 19t32.5 11.5q39 -34 49 -96q6 -26 13.5 -75t9.5 -61q2 -10 12 -71t17 -92q22 -92 100 -144q57 -38 86 -53q44 -27 108 -37q13 -2 24 -2q31 0 56 12q7 4 17 23 q-17 13 -25 16q-3 3 -14 -2q-9 -4 -21 -4q-20 0 -47 12q-88 47 -114 117q-26 56 -37 111q-9 39 -26 116.5t-26 116.5q-13 71 -61 113q-5 5 -66 47q0 3 5 8l165 164q225 225 330 459q59 129 70 213q2 17 1.5 34.5t-1.5 34.5q-7 35 -53 35h-7q-21 0 -29.5 -8t-13.5 -29 q-3 -16 -14.5 -74t-19.5 -89q-88 -314 -291 -523q-46 -48 -189 -186q-3 -4 -22 -23q10 59 39 138q64 173 102 335q9 43 12 87q3 23 -6 33t-32 12q-29 3 -43 -6.5t-23 -38.5q-92 -281 -152 -529q-16 -68 -67.5 -266.5t-73.5 -308.5l-3 -9t-2.5 -9.5t-1 -8.5z" />
<glyph unicode="L" horiz-adv-x="548" d="M6 -59q-6 -27 -6 -49q0 -38 18 -64q30 -40 107 -53q10 0 14 -2q35 -4 70 -4q142 0 297 67q4 2 24 17q11 12 8 25.5t-18 19.5q-32 16 -55 -11q-20 -20 -70 -28q-118 -18 -162 -21q-9 -1 -17 0q-50 0 -68 20q-13 14 -12 44q0 19 5 45q19 104 37 164q27 88 83.5 263 t84.5 263l96 311q1 5 11 62q-39 14 -54 -13q-27 -53 -34 -69q-180 -412 -285 -727q-46 -136 -74 -260z" />
<glyph unicode="M" horiz-adv-x="1204" d="M0 -150q3 -31 33 -40q20 -8 37 -8q40 0 67 42q30 45 76 121q173 281 309 496q142 222 232 327l24 29l6 -4q-2 -4 -5 -13.5t-5 -13.5q-49 -93 -72 -141q-36 -79 -116 -264q-12 -23 -15 -53q-3 -28 25 -39q19 -7 38 -7l38 7q47 21 78 45q25 22 106 108q29 30 85.5 92 t84.5 91q2 3 29 20q-18 -37 -27 -51q-105 -202 -168 -391q-18 -56 -37 -148q-3 -14 -3 -26q0 -33 20 -55q27 -30 71 -37q19 -3 37 -3q60 0 109 33q84 57 221.5 188.5t218.5 225.5q3 4 7 15t7 16q-25 8 -33 8t-18 -8q-8 -4 -26 -23q-49 -41 -201.5 -176.5t-192.5 -169.5 q-3 -2 -8.5 -7t-9 -7.5t-9 -6.5t-10 -7t-10 -6t-12 -5t-12.5 -4q-5 28 -4 31q11 50 20 80q9 28 68 184q11 30 51.5 140.5t60.5 170.5q12 32 29 119q4 28 -10 41t-45 10q-23 0 -45 -18q-23 -14 -64 -51l-301 -287q-1 -1 -14 -11t-23 -18q9 27 13 35l147 352q19 56 22 72 q1 7 1 14q0 34 -41 39q-7 1 -14 1q-44 0 -72 -34q-18 -20 -51.5 -56.5t-60 -67.5t-48.5 -60q-186 -245 -332 -475q0 -1 -29 -39q0 19 2 23q27 84 103 305l110 321q14 34 14 54q0 5 -1 8q-29 12 -40.5 9t-21.5 -26q-98 -209 -137 -301q-53 -128 -139 -360l-99 -266 q-18 -43 -18 -89z" />
<glyph unicode="N" horiz-adv-x="954" d="M-35 -256q28 -24 58 -24h6q33 2 53 32q12 16 27 47q149 287 430 697q111 162 215 256l30 22q-2 -7 -4.5 -15t-4 -13t-3.5 -9q-63 -139 -78 -166q-129 -261 -172 -508q-12 -86 -12 -126q1 -41 21.5 -60t62.5 -22h11q52 0 95 26q20 13 72 49q73 58 154 134.5t134 131 t140 146.5q1 2 7 8t8 9t5.5 8.5t5 10.5t1.5 11q-14 22 -41 8q-10 -5 -21 -20q-65 -66 -147 -137t-148.5 -123.5t-158.5 -122.5q-22 -17 -33 -25q-4 -2 -13.5 -5.5t-15.5 -6.5v29q54 285 131 512q9 27 33 93t37 103q16 62 18 94q4 27 -10.5 41.5t-44.5 12.5t-61 -33 q-20 -21 -60.5 -61t-72 -73t-56.5 -65q-64 -80 -291 -385q-1 -2 -32 -45l-9 6q10 24 31 75t31 75q32 68 35 74l104 292q10 29 0 43q-13 6 -25 6q-25 0 -40 -28q-17 -23 -35 -55q-100 -206 -164 -383q-32 -92 -96 -258.5t-84 -221.5q-4 -10 -11.5 -30.5t-11.5 -30.5z" />
<glyph unicode="O" horiz-adv-x="745" d="M4 262q-3 -30 -3 -60q0 -69 17 -143q33 -120 123 -178q83 -53 175 -53h16q132 6 246 96q123 102 165 295q7 30 6 59q0 73 -40 140l-31 49q9 12 28.5 32.5t28.5 32.5q114 136 117 338q0 67 -42.5 117t-109.5 64q-23 6 -49 6q-41 0 -90 -15q-165 -51 -272 -170 q-241 -256 -285 -610zM123 279q38 305 227 544q82 107 205 170q27 14 47 21q31 12 58 12q70 0 116 -76q27 -44 27 -99q0 -16 -2 -32q-32 -187 -146 -309q-1 -1 -4 -2.5t-6 -3.5q-61 51 -113 98q-9 8 -43 27q-25 8 -36 -11q15 -16 47.5 -46.5t57.5 -57t44 -53.5 q-10 -15 -24.5 -26.5t-33 -24t-28.5 -21.5q25 -6 39 -2.5t74 31.5q31 -44 31 -108q0 -26 -5 -56q-3 -25 -18 -64q-70 -170 -201 -262q-29 -18 -67 -34q-24 -11 -48 -10q-38 0 -77 26q-64 46 -94 123q-31 86 -31 179q0 33 4 67z" />
<glyph unicode="P" horiz-adv-x="600" d="M2 -82q-6 -37 11 -55t55 -15q41 3 57 37q6 13 22 43t23 47q164 372 305 625q104 186 189 297q65 83 129 129q3 2 13.5 6t16.5 6q1 -17 1 -35q0 -104 -50 -231q-75 -181 -252 -287q-26 22 -41 9q-16 -16 -16 -29q-1 -10 6 -14.5t18 -4.5q9 -1 17 -1q30 0 57 16 q93 52 135 80q162 104 213 321q9 53 9 96q0 22 -2 41q-15 77 -95 80q-43 0 -82 -28q-38 -28 -77 -64q-75 -73 -164 -207q-113 -166 -211 -358q-4 -8 -13.5 -23.5t-13.5 -23.5q-2 4 -2 22l111 416q27 102 43 182q5 22 5 37q0 18 -7 27q-26 4 -43 -29q-20 -33 -31 -65 q-96 -241 -133 -340q-7 -20 -32 -88.5t-35.5 -100t-29 -86.5t-31 -101.5t-22.5 -92.5q-40 -175 -53 -238z" />
<glyph unicode="Q" horiz-adv-x="716" d="M0 57q7 -103 63 -168q63 -79 179 -79q18 0 37 2l49 6q4 -20 16 -60q21 -84 55 -190q4 -18 25 -29q23 -15 43 8l-31 322q2 0 2 4q15 10 21 16q149 123 231 310q39 91 39 177q0 39 -8 77q-3 18 -15.5 50.5t-15.5 43.5q17 23 19 26q103 174 106 179q42 79 45 176v7 q0 60 -32 95q-33 37 -97 43q-11 1 -22 1q-59 0 -136 -30q-146 -55 -256 -194q-206 -259 -297 -617q-21 -75 -21 -144q0 -16 1 -32zM125 190q66 384 301 680q96 120 221 166q47 15 80 15h6q36 0 65 -23q30 -25 36 -65q4 -19 4 -38t-4 -38q-28 -172 -164 -320q-30 26 -43 35 q-21 16 -58 41q-17 10 -36 10q-18 0 -37 -8q97 -63 129 -131q-93 -105 -236 -170q27 -12 60 0q69 28 131 84q1 1 22 20.5t35 30.5q2 -7 6.5 -21t5.5 -20q3 -22 3 -44q0 -48 -13 -95q-54 -191 -205 -336l-16 -8q-3 12 -9.5 34.5t-9.5 33.5q-9 32 -43 32h-6q-17 0 -26 -6.5 t-13 -23.5q-8 -21 -8 -52q0 -13 1 -27t2.5 -31.5t2.5 -27.5q-27 -21 -54 -21q-25 0 -50 19q-34 24 -55 76q-32 68 -32 149q0 39 7 80z" />
<glyph unicode="R" horiz-adv-x="790" d="M0 -199l18 -12q12 -4 21 -4q34 -3 51 7t21 38q3 16 10 33q119 333 270 596q101 178 221 309q58 65 119 104q8 4 29 11q5 -16 5 -34.5t-5 -39.5q-17 -95 -101 -203q-110 -138 -249 -229q-2 -1 -9.5 -5.5t-11 -7t-9 -7t-8.5 -9t-5 -10.5q3 -6 7.5 -10t7.5 -5.5t10 -3 t9 -2.5q26 -5 32.5 -11t6.5 -30v-9q0 -29 -4 -117q-1 -16 -6 -46t-6 -45q-1 -12 -1 -23q0 -108 62 -157q76 -61 175 -61q25 0 51 4q37 3 37 26q0 21 -43 15h-5q-39 -6 -62.5 5t-43.5 44q-35 56 -35 125q0 41 8 127q3 22 3 42q0 31 -7 58q-10 53 -49 74q-7 7 -25 16 q8 6 21 14.5t18 12.5q135 91 232 211q69 89 90 176q6 31 6 55q0 20 -4 35q-8 39 -36 57q-18 12 -42 12q-12 0 -24 -3q-25 -6 -74 -31q-74 -46 -148 -133q-80 -89 -182 -256q-1 -2 -4.5 -8.5t-5.5 -9.5t-6 -8.5t-8.5 -10t-10.5 -8.5q3 10 9 29.5t8 29.5q72 225 86 270 q21 70 39 144q1 4 1 9.5t-0.5 12.5t-0.5 11q-28 10 -45 -17q-27 -54 -29 -59q-14 -39 -41 -109t-35 -90q-185 -471 -297 -860q0 -1 -6 -29z" />
<glyph unicode="S" horiz-adv-x="591" d="M0 -190q0 -38 14.5 -61t48.5 -36q43 -15 87 -15q19 0 38 3q114 14 203 119q95 111 121 278q9 59 9 145q0 29 -1 60q0 39 25 59q22 18 61 52.5t53 46.5l129 108q17 17 41 45q2 4 1.5 12t-3.5 11q-5 8 -22 2q-2 0 -4 -1t-3.5 -2t-3.5 -2.5t-3 -2.5q-57 -50 -144 -119 q-17 -14 -37.5 -28.5t-47.5 -33t-44 -30.5q0 35 2 49q4 117 10 176q13 138 60 256q32 92 104 141q37 21 58 29q10 3 18 3q30 0 35 -38q3 -23 -4 -51q-19 -87 -94 -168q-18 -19 -54.5 -54.5t-44.5 -43.5q-11 -11 -26 -29q5 -4 15.5 -2t12.5 2.5t10.5 4.5t10.5 5 q120 67 190 187q29 50 35 114q1 8 1 15q0 73 -81 82q-6 0 -12 1q-32 0 -68 -14q-76 -30 -129 -92q-82 -95 -125 -231q-49 -169 -49 -370v-23q0 -44 -37 -78q-123 -106 -231 -238q-64 -78 -96 -143q-27 -64 -29 -100zM86 -213q0 19 8 55q9 35 53 103q83 114 228 256q1 2 16 8 q0 -139 -47 -250q-32 -88 -76 -139q-20 -25 -67 -66q-21 -17 -53 -17q-6 0 -13 1q-49 3 -49 49z" />
<glyph unicode="T" horiz-adv-x="342" d="M4 -113q-11 -28 14 -41q7 -4 25 -8q29 -6 45.5 3.5t28.5 39.5q7 21 35 88q100 204 127 267q150 347 288 585q11 18 27 21q45 10 217 53l20 10q-15 19 -49 15q-9 -1 -88 -8.5t-119 -14.5q-80 -13 -413 -74q-12 -2 -41 -10q0 -29 29 -33q32 -7 59 -4q27 2 78.5 9.5 t66.5 9.5q6 1 19 1t18 1q4 -7 2 -9l-12 -28q-204 -350 -377 -873z" />
<glyph unicode="U" horiz-adv-x="1140" d="M0 219q-6 -19 16 -26q10 -3 19 -3q30 0 45 29q66 121 100 170q115 167 252 264q6 4 22 14t25 17q3 -8 4 -15t0 -14.5t-2 -11t-4 -12t-4 -10.5q-45 -120 -74 -185q-97 -214 -202 -514q-19 -57 -25 -108q-1 -8 -1 -15q0 -57 65 -65q16 -2 31 -2q59 0 108 37q54 38 90 79 q96 112 262 312q31 39 141 186l9 -6q-7 -24 -15 -43q-48 -132 -65 -260q-5 -28 -5 -58q0 -24 3 -49q6 -64 77 -73q11 -1 21 -1q63 0 102 38q68 62 80 77q158 199 289 367q6 7 31 47q1 4 1 14t1 17q-19 -10 -23 -15q-29 -29 -41 -43q-205 -242 -356 -370q-3 -3 -21 -17.5 t-30 -25.5q-3 22 -2 26q10 98 14 117q29 136 119 377q28 73 43 125q14 42 14 80v14q-8 2 -16 2l-56 -31l-49 -63q-65 -74 -224.5 -258.5t-246.5 -282.5q-40 -47 -194 -215q-5 -6 -17.5 -14.5t-15.5 -11.5q-7 18 2 51q52 176 117 305q54 109 131 317q24 68 37 117q8 36 8 80 q0 51 -49 57q-16 1 -29 1q-26 0 -41 -5q-47 -16 -98 -49q-223 -150 -353 -408q-9 -20 -20 -57z" />
<glyph unicode="V" horiz-adv-x="708" d="M2 -23q-3 -29 0 -57q9 -110 131 -133q26 -5 51 -5q59 0 117 25q95 45 186 146q189 207 308 475q101 230 106 428q1 25 1 49q0 105 -15 170q-9 39 -31 76q-17 28 -46 31h-7q-26 0 -53 -19q21 2 34.5 -7.5t18.5 -20.5t10 -31q7 -19 14 -57q7 -54 7 -119q0 -95 -15 -213 q-14 -142 -94 -289q-84 -155 -184 -281q-134 -164 -236 -241q-47 -35 -88 -56q-28 -12 -45.5 -5.5t-30.5 34.5q-1 1 -12 29q-5 19 -5 61q0 21 1 47q2 20 7.5 41.5t14.5 47.5t13 40q36 115 131 344q40 91 90 211q17 38 10 56q-31 6 -39.5 2.5t-25.5 -29.5 q-147 -238 -236 -430q-74 -160 -88 -320z" />
<glyph unicode="W" horiz-adv-x="1015" d="M2 -178q9 -91 100 -103q14 -2 27 -2q49 0 90 27q6 4 23 16.5t25.5 19t22 17.5t23.5 21.5t19 21.5q79 92 174 211q1 2 3.5 5.5t4.5 6.5t5 6.5t7 5t9 1.5l-7 -58q0 -41 2 -61q4 -41 24.5 -61.5t63.5 -26.5q10 -1 20 -1q49 0 105 28q99 53 177 151q276 354 288 825 q0 47 -8 80q-12 38 -32 50q-15 9 -46 9q-10 0 -22 -1q30 -48 30 -105v-10q-7 -164 -47 -301q-79 -263 -272 -502q-78 -99 -147 -151q-23 -14 -31 -17q-16 20 -19 51q-2 17 -2 35q0 49 13 96q19 92 67 195q18 41 23 57q9 26 -6 37q-8 8 -24.5 8.5t-27.5 -6.5 q-3 -4 -9.5 -11.5t-8.5 -10.5l-66 -92q-177 -253 -290 -379q-33 -35 -103 -101q-3 -3 -11.5 -6.5t-12.5 -7.5q18 126 86 291q111 255 243 498q3 7 10.5 20t10.5 20q5 12 5 22q0 24 -32 32q-25 8 -46 8q-52 0 -85 -45q-42 -55 -76 -109q-19 -29 -38 -65.5t-31 -61.5 t-32.5 -70.5t-29.5 -64.5q-97 -229 -127 -332q-14 -50 -14 -86q0 -13 2 -24z" />
<glyph unicode="X" horiz-adv-x="684" d="M0 -317q33 -8 44 -5.5t26 25.5l73 117q159 253 209 330q23 36 39 47q5 -8 11.5 -22t7.5 -17q61 -148 137 -324q14 -38 41 -80q13 -21 24 -23.5t41 7.5q-1 2 -1 7t-1 7q-31 78 -57 164t-57 204.5t-45 166.5q-4 17 -4 32q0 30 16 54q50 63 127 178q50 73 142.5 210.5 t113.5 168.5q20 28 22 53q-4 1 -11.5 3.5t-12.5 2.5q-37 0 -62 -22q-65 -58 -94 -90q-127 -150 -246 -342l-30 -43q-18 110 -21 124q-16 93 -39 205q-9 38 -29.5 54.5t-60.5 19.5q-21 3 -45 -4q-35 -8 -47 -22.5t-12 -51.5q0 -1 2 -22.5t4 -32.5q28 -104 31 -113 q47 -139 116 -332q-16 -29 -71 -128t-86 -152q-32 -57 -92 -160t-83 -143q-2 -4 -6.5 -11.5t-7 -12.5t-4.5 -12.5t-2 -14.5z" />
<glyph unicode="Y" horiz-adv-x="653" d="M8 438q9 -45 33.5 -69t69.5 -33q21 -4 43 -4q53 0 116 24q88 38 164 117q19 19 51 55q4 -17 -4 -41q-60 -152 -112 -327q-70 -234 -70 -498v-22q0 -7 1 -20.5t1 -20.5q3 -20 11.5 -28.5t27.5 -10.5q5 0 12 1t15.5 2.5t13.5 2.5q10 31 12 41q25 92 45 155q11 39 38 125 t40 133q85 305 193 582q31 72 63 182q8 21 8 56q3 19 -22 30q-26 12 -56 6t-49 -28q-26 -28 -115.5 -129t-140.5 -154q-51 -56 -141 -131q-22 -22 -70 -41q-25 -11 -39 -5t-24 32q-14 35 -14 63q0 86 8 127q8 51 30 147.5t25 110.5q14 41 6 58q-29 22 -51 0q-9 -9 -16 -27 q-76 -162 -101 -313q-8 -50 -8 -89q0 -34 6 -59z" />
<glyph unicode="Z" horiz-adv-x="1302" d="M430 -139q9 -25 39 -29q9 -1 18 -1q39 0 60 15q46 29 137 52q57 13 110 13q65 0 121 -20q57 -17 119 -43q179 -76 314 -104q82 -14 153 -14q86 0 158 20q84 24 135 115v18q-29 -5 -33 -8q-3 -2 -32 -31q-42 -42 -103 -51q-58 -11 -113 -11q-89 0 -172 28q-128 43 -233 86 q-177 65 -322 65h-20q-3 0 -31 4l19 19q108 84 207 200q21 25 67 79.5t82 96t70 78.5q44 45 94 95.5t112 111.5t95 94q3 3 9 11.5t9 11.5q-21 23 -54 23q-11 0 -24 -3q-3 -1 -25 -8.5t-34 -9.5q-185 -34 -323 -34q-43 0 -81 3l-157 19q-20 3 -42 2q-46 0 -100 -11 q-77 -16 -124 -71q-31 -45 -31 -74q2 -17 7.5 -21.5t31.5 -7.5l6 15q7 55 74 96q64 38 137 38q27 0 55 -5q137 -26 260 -26q72 0 139 9q11 1 35 2t37 2q-32 -29 -49 -41q-167 -135 -287 -280q-81 -93 -151 -178q-154 -197 -342 -316q-7 -5 -27 -24z" />
<glyph unicode="[" horiz-adv-x="835" d="M207 -162q-11 -68 20 -122.5t89.5 -76t121.5 0.5q-82 51 -96 87t12 130q4 15 28.5 94.5t33.5 122.5q35 174 178 901q14 82 31 110q31 51 108 50q-114 17 -161.5 -7t-88.5 -122q-23 -55 -92 -275q-42 -137 -78.5 -304.5t-55.5 -279t-50 -309.5z" />
<glyph unicode="\" horiz-adv-x="753" d="M102 975q2 -24 15 -84q84 -410 211 -764q2 -7 14.5 -39.5t16.5 -43t14.5 -38t17 -42.5t16.5 -38t19.5 -42t19.5 -38q47 -9 67 2.5t32 53.5q8 32 -4 63q-9 35 -31 88q-99 241 -231 656l-93 278q-1 3 -3 10l-3 10.5t-3.5 10t-4.5 10.5t-6 8.5t-8 7.5q-34 -12 -45.5 -26 t-10.5 -43z" />
<glyph unicode="]" horiz-adv-x="890" d="M205 -348v-17q30 -10 37 -10q94 -8 149.5 36.5t81.5 148.5q148 622 170 720q67 288 29 512q-15 87 -58.5 108.5t-126.5 -15.5q75 -3 89 -18t8 -89q-16 -217 -39 -321q-15 -68 -228 -955q-19 -84 -112 -100z" />
<glyph unicode="^" horiz-adv-x="886" d="M207 608q31 -17 49.5 -15t38.5 25q14 22 20 29q87 119 138 182q4 5 13.5 15t14.5 16l27 -59q2 -4 12.5 -24t16.5 -29q19 -40 59 -43q5 0 18 -1.5t19 -1.5t16 1t18 5t15 11q-7 13 -29 48t-32 54q-4 8 -13 28.5t-16 31.5q-17 27 -37 47q-23 23 -64.5 20.5t-62.5 -30.5 q-128 -170 -207 -271q-19 -24 -14 -39z" />
<glyph unicode="_" horiz-adv-x="1501" d="M207 -18q13 -38 45 -41q32 -7 55 -7q355 -25 766 -12q31 1 88.5 7.5t77.5 7.5q43 12 53 35t-10 67q-12 24 -41 27q-122 12 -186 8q-112 -6 -337 -17.5t-337 -17.5q-94 -4 -141 -8q-45 -3 -33 -49z" />
<glyph unicode="a" horiz-adv-x="815" d="M27 -2q3 -106 106 -121q23 -4 46 -4q77 0 143 47q45 30 73 62q90 106 133 159l31 39q2 -7 2 -37q-12 -64 -14 -90q-1 -31 11.5 -46.5t41.5 -20.5q24 -7 45 0q50 15 74 34q57 45 114 98.5t134 130.5t108 107q14 14 25.5 33.5t-0.5 28.5q-11 5 -51 -25q-20 -17 -56.5 -47.5 t-66 -56t-54.5 -49.5q-46 -44 -82.5 -75t-82.5 -75q-41 -31 -54 -45l-12 6q1 7 4 30t6 34q9 31 31 99t33 105q12 36 18 68q3 26 -20 29q-13 3 -24 3q-33 0 -54 -28l-191 -231q-100 -124 -178 -189q-34 -27 -71 -45q-37 -15 -52 19q-16 28 -16 47q-1 22 -1 41q0 37 5 59 q24 125 102 232q64 84 144 102q23 -21 23 -54q0 -11 -3 -24q-7 -38 -32 -137q-3 -15 -9 -27q18 -16 35 -2q21 26 27 37q11 22 18 53q13 80 13 111q0 37 -20.5 55t-57.5 15q-15 0 -21 -2q-93 -14 -166 -93q-96 -111 -141 -256q-16 -53 -16 -104z" />
<glyph unicode="b" horiz-adv-x="581" d="M23 -55q-3 -18 -3 -34q0 -45 24 -77q33 -44 101 -51q16 -2 31 -2q79 0 139 53q79 74 131 180q13 30 20.5 50.5t13.5 48t3 53.5t-12 53q76 9 152 21q45 7 133 61q62 37 82 55t30 47q-31 -13 -32 -14q-23 -12 -63.5 -34.5t-51.5 -28.5q-85 -47 -154 -52q-34 -2 -68.5 -2 t-68.5 2q-10 1 -18 1q-39 0 -62 -15q20 -24 25 -29q28 -20 28 -57q0 -10 -2 -22q0 -16 -6 -31q-63 -161 -180 -254q-5 -5 -33 -19q-21 28 -21 68q0 15 3 33q24 109 76 235q13 31 41 49q102 70 147 111q231 214 385 418q33 39 49 94q5 16 5 28q0 45 -60 48h-7q-49 0 -102 -37 q-129 -84 -258 -227q-223 -248 -338 -494q-62 -132 -79 -229zM299 289q65 147 139 243q79 104 142 177.5t135 134.5l55 45q25 18 45 16q23 -15 12 -45q-17 -44 -26 -55q-18 -33 -49 -72q-220 -259 -428 -426z" />
<glyph unicode="c" horiz-adv-x="495" d="M63 27q11 -90 96 -90h11q48 3 98 22q113 45 195 119l325 301q3 3 7.5 12t7.5 12q-23 14 -55 -2q-54 -37 -62 -45q-59 -43 -158 -120q-212 -165 -229 -177q-18 -13 -57 -32.5t-54 -28.5q-15 35 -15 77q0 24 5 50q32 124 117 242q8 13 18.5 24t31 29t24.5 22q26 24 49 24 q12 0 24 -7q23 -14 23 -41q0 -16 -8 -37q-1 -4 -41 -92q-4 -13 -19 -35q30 -9 43 6q60 78 74 143q8 34 -9 59t-52 32q-10 2 -35 2q-4 0 -9 1q-75 0 -137 -51q-159 -131 -204 -319q-7 -30 -7 -63q0 -18 2 -37z" />
<glyph unicode="d" horiz-adv-x="735" d="M41 57q3 -52 29.5 -79t79.5 -33h45q96 10 204 84l45 32q41 -41 115 -41h10q114 6 189 84l237 240q15 15 19 23q1 3 6 26h-8q-31 0 -66 -28l-145 -127q-26 -22 -78 -65t-78 -64q-46 -33 -80 -33h-4q-25 32 -25 50t29 44q9 8 37 34t40.5 38t34 33.5t37.5 40.5t31 38 q121 165 226 316q9 13 18.5 31t14.5 29t15 36t13 31q10 27 10 53v6q0 53 -52 53h-5q-34 -3 -63 -16q-74 -32 -144 -113q-98 -111 -248 -358q-1 -2 -32 -53q4 52 4 53q-2 40 -26 62q-22 22 -59 22h-3q-15 0 -39 -4q-73 -19 -125 -68q-138 -126 -195 -293q-14 -38 -14 -84z M162 106q40 172 162 306q41 48 92 61q27 -19 27 -49q0 -6 -1 -12q-4 -35 -20 -105q-2 -7 -10 -26.5t-11 -30.5q30 -9 37 -10q0 -2 1 -5.5t1 -5.5q-15 -59 -25.5 -74.5t-60.5 -52.5q-38 -28 -118 -77q-7 -4 -16.5 -7.5t-21.5 -6.5t-18 -5q-22 29 -22 66q0 16 4 34zM598 326 l6 28q120 245 227 389q35 49 84 95q30 34 64 39q7 -16 -2 -52q-20 -70 -66 -135q-124 -178 -301 -358z" />
<glyph unicode="e" horiz-adv-x="501" d="M23 37q-2 -13 -2 -25q0 -77 85 -92q18 -3 37 -3q38 0 78 11q115 31 217 127q77 72 338 324q3 4 10 22q-30 -6 -37.5 -9t-25.5 -17q-64 -52 -90 -74q-36 -28 -138 -112t-159 -128q-24 -18 -127 -73q-28 -14 -48 -14q-9 0 -16 3q-4 14 -6 27.5t0 28.5t3.5 25.5t7 27.5 t8 24.5t10.5 27t10 24.5q190 39 262 198q13 26 13 46q0 18 -11 30q-20 21 -50 21q-14 0 -30 -4q-40 -15 -47 -19q-44 -26 -75 -53q-108 -94 -174 -217q-38 -75 -43 -127zM215 215q15 52 71.5 117t102.5 86q1 -5 1 -10q0 -47 -51 -106q-56 -65 -124 -87z" />
<glyph unicode="f" horiz-adv-x="401" d="M-143 -440q6 -69 77 -82q22 -4 42 -4q67 0 112 49q42 52 57 78q70 117 127 293q24 84 24 143q0 14 -1 26q-1 14 -16 103q3 0 9 1t9 1q76 5 92 8q83 17 153 63t154 123q9 6 13 17v22q-29 -5 -31 -6q-4 -2 -31 -24q-142 -109 -272 -146q-30 -8 -58 -8q-36 0 -69 14v13 q15 30 18 35q88 162 246 344q17 18 48 54.5t36 41.5q3 4 7 14.5t7 14.5q-10 6 -18.5 7t-17.5 -4t-12 -7t-13 -11q-246 -235 -395 -475q-85 -143 -179 -326q-80 -149 -110 -278q-9 -42 -9 -76q0 -9 1 -18zM-16 -463q-6 26 -6 51q0 32 10 62q10 28 44 121.5t54 144.5 q12 29 27 61.5t35 73.5t30 62l23 41q13 -27 14 -29q6 -24 6 -51q0 -32 -8 -70q-42 -226 -170 -403q-5 -9 -39 -47q-5 -5 -20 -17z" />
<glyph unicode="g" horiz-adv-x="722" d="M-52 -606q20 -27 71 -27h10q29 0 73 19q28 11 60 36q83 62 160 191q122 216 194 350q19 39 51 64q163 122 205 155q82 62 229 180q17 13 46 46q3 3 3.5 10.5t-1.5 11.5q-1 3 -8.5 4.5t-10.5 -0.5q-28 -12 -43 -22q-12 -9 -41 -32t-45 -34q-155 -120 -285 -188 q2 6 7.5 18.5t7.5 18.5l71 139q2 5 13 28.5t16 36.5q14 36 -29 39q-27 2 -57 -24q-146 -134 -201 -181q-43 -35 -163 -120q-45 -31 -78 -31q-20 17 -20 45q0 8 1 16q3 21 15 54q40 109 139 202q33 29 65 37q27 -14 27 -53q0 -20 -8 -66q-1 -5 -2.5 -14.5t-2 -15.5t0 -14.5 t4.5 -16.5l18 6q32 23 46 70q7 23 7 43q0 22 -8 41q-22 51 -75 51h-8q-68 0 -130 -47q-114 -86 -180 -221q-8 -17 -12 -39q-6 -22 -6 -41q0 -69 84 -86q8 -2 24 -2q10 -1 20 -1q80 0 156 58q56 43 144 119q13 9 39 31q2 -8 -4 -25q-6 -11 -24 -41t-29 -51.5t-19 -42.5 q-30 -66 -113 -135q-171 -135 -297 -291q-68 -84 -106 -172q-11 -28 -11 -49t10 -37zM31 -559q18 41 26 55q85 142 248 301q2 2 8 2q0 -2 1 -5t1 -5q-108 -199 -157 -266q-49 -62 -101 -101q-6 -4 -26 -14v33z" />
<glyph unicode="h" horiz-adv-x="913" d="M20 -55q0 -41 37 -56q16 -8 43 -12q10 -2 20 -2q54 0 111 45q16 13 107 94q131 125 133 127q55 52 123 88q-4 -38 -4 -39q-4 -15 -35 -122l-18 -78q-1 -8 -1 -15q0 -43 46 -53q10 -4 34 -4q48 0 99 35q84 65 129 106q105 93 330 295q31 30 38 41q3 2 4 5t2.5 8.5t2.5 9.5 h-7q-31 0 -69 -31l-467 -369q-6 -5 -21 -15t-24 -17q0 20 2 26q2 11 8 30.5t8 27.5q30 120 33 149q1 7 1 13q0 46 -54 51h-10q-41 0 -74 -21q-15 -9 -49.5 -30t-60 -37t-48.5 -33q-38 -30 -182 -154q-35 -27 -55 -45q-6 13 -5 14q25 94 93 213q8 16 22 19q114 30 221 137 q115 115 168 176q65 78 156 195q35 50 41 108q3 28 -8 41.5t-39 16.5q-12 2 -25 2q-51 0 -96 -31q-71 -51 -100 -76q-303 -271 -482 -620q-26 -49 -67 -158q-7 -19 -11 -55zM276 250q11 28 19 41q162 273 362 473q40 37 78 65q5 4 12.5 8.5t18.5 10.5t18 10q1 -9 1 -19 q0 -50 -23 -94q-20 -38 -43 -67q-155 -196 -242 -275q-22 -20 -47 -40.5t-57.5 -45.5t-48.5 -38q-4 -4 -10.5 -7.5t-17.5 -10t-20 -11.5z" />
<glyph unicode="i" horiz-adv-x="432" d="M84 96q-3 -13 -3 -24q0 -55 62 -60q16 -2 32 -2q27 0 54 6q126 24 232 101q52 37 110.5 90.5t87.5 83t99 102.5q5 5 22 33q3 8 -3 14.5t-13 3.5q-27 -10 -43 -26q-154 -139 -272 -217q-24 -16 -189 -113q-32 -19 -74 -22q0 5 -0.5 12.5t-0.5 13.5t1 10q22 68 33 91 q18 39 54 110.5t42 83.5q2 4 7 10.5t6.5 9.5t3.5 10t-2 11q-33 10 -46.5 7t-33.5 -27q-88 -105 -139 -234q-24 -65 -27 -78zM317 578q28 -4 36.5 -1.5t27.5 21.5l98 109q6 6 21 26q-25 13 -33 14.5t-25 -4.5q-55 -19 -82 -65q-11 -19 -38 -76q-2 -5 -3 -13.5t-2 -10.5z" />
<glyph unicode="j" horiz-adv-x="331" d="M-403 -707q19 122 100 252q111 177 264 330q50 50 72 107q63 165 110 274q50 109 111 193q17 25 41 25q14 0 31 -9q-15 -39 -44 -111t-32 -80q-9 -25 -33.5 -91.5t-40.5 -108.5l45 32q31 25 159.5 132t160.5 131q32 28 61 28h4q-1 -3 -1 -9t-1 -10t-4 -7q-13 -16 -43 -41 q-33 -30 -391 -348q-38 -35 -53 -84q-106 -300 -252 -578q-29 -60 -82 -133q-13 -23 -45 -47q-26 -22 -64 -22q-13 0 -28 3q-27 5 -41 41q-10 31 -10 69q0 29 6 62zM-336 -762q-4 -33 10 -51q9 9 21 25q38 66 70 137.5t76.5 184t58.5 144.5q-165 -202 -219 -370 q-10 -28 -17 -70zM358 643q0 19 9 55q1 3 3.5 13t3.5 13.5t3.5 12.5t4 13.5t4.5 12t6 12.5t6.5 11.5t8 12t9.5 10.5q23 27 47 27q4 0 8.5 -2t11.5 -5t11 -4q-18 -28 -25 -43q-10 -22 -31.5 -64t-31.5 -63q-1 -2 -5.5 -10.5t-7.5 -11.5q-13 -9 -22 -6q-5 2 -9.5 7.5t-3.5 8.5 z" />
<glyph unicode="k" horiz-adv-x="585" d="M-20 -162q30 -22 54 -22q6 0 12 2q28 6 42 43q52 135 195 415q3 5 20 27q4 -8 9.5 -16.5t6.5 -11t2 -6.5t1 -9q0 -14 -5 -86q0 -1 -3.5 -32.5t-2.5 -47.5q3 -77 82 -96q29 -7 56 -7q72 0 131 48q40 31 63 57q51 57 144.5 165t109.5 126q14 19 16 27q1 1 5 28 q-11 0 -19.5 -2.5t-19 -10.5t-12 -9.5l-13.5 -13.5q-112 -116 -332 -300q-40 -36 -69 -47q-23 20 -27 72v66q-1 29 -3.5 47.5t-13.5 42.5t-30 41l51 45q119 105 234 260q15 20 57 102q10 18 14 47q5 29 -6.5 44t-42.5 18h-10q-37 0 -72 -19q-44 -28 -69 -53 q-44 -46 -121 -135q-11 -8 -27 -29q1 12 4.5 24.5t7 20.5t10 21.5t9.5 19.5q3 8 41 86q32 76 35 84q6 16 19 45.5t19 44.5q3 9 12 25.5t14 30.5t5 28q-15 8 -27 8q-20 0 -36 -20q-23 -29 -37 -55q-20 -34 -39 -68t-39.5 -75.5t-34 -68t-36 -76.5t-31 -69t-33.5 -78 t-29.5 -69.5t-32.5 -78t-30 -71.5q-35 -84 -174 -460q-1 -3 -2 -9.5t-2 -9.5zM336 375q36 104 146.5 247t189.5 185l-15 -51q-2 -5 -6 -14.5t-6 -14.5q-132 -222 -291 -348l-14 -6q-2 0 -4 2z" />
<glyph unicode="l" horiz-adv-x="542" d="M43 -45q6 -44 27.5 -67.5t64.5 -32.5q17 -5 45 -5h5q97 0 202 74q84 62 168 156q68 76 238 272q1 1 7 6.5t8 8t5.5 8t5 11.5t0.5 13q-25 0 -28 -2q-23 -11 -33 -24q-29 -27 -82.5 -77.5t-97.5 -91.5t-84 -77q-115 -104 -193 -164q-27 -21 -84 -49q-33 -13 -39 16 q-11 38 -10 71v15q6 74 43 160q55 7 119 60q226 180 381 405q48 71 73 158q7 24 7 45v5q0 55 -60 58h-8l-78 -26q-40 -27 -76 -58q-73 -71 -141 -141q-166 -181 -248 -313q-91 -146 -127 -279q-12 -53 -12 -98q0 -19 2 -37zM227 217q31 84 109 209q117 175 305 377 q39 46 76 65q19 -19 8 -47q-3 -8 -8.5 -27t-9 -30t-10 -26t-13.5 -27q-49 -81 -102 -148q-118 -145 -293 -307q-12 -10 -45 -35q-1 -1 -3 -1t-6 -0.5t-8 -2.5z" />
<glyph unicode="m" horiz-adv-x="1097" d="M-18 -154q-6 -33 5 -46t44 -15h7q40 0 71 31l163 182q125 143 193 215q60 64 121 86q-3 -9 -10.5 -27.5t-10.5 -27.5q-50 -107 -59 -129q-33 -82 -55 -148q-6 -20 0.5 -29t27.5 -12q10 -2 19 -2q34 0 61 27q43 53 90 102q49 56 73 82.5t68 68.5t84 70l46 31q9 -18 0 -49 l-37 -104q-22 -82 -23 -84q-6 -39 29 -48q33 -6 55 -6h10q47 2 117 56q59 47 91.5 77.5t69.5 70t85 83.5q47 43 90 90q7 7 16 29q-14 9 -26 9t-18.5 -4.5t-18.5 -14.5q-176 -148 -266 -222l-84 -67q-5 -4 -18.5 -11.5t-22.5 -13.5q18 99 20 113q5 34 5 65q0 13 -1 25 q-1 29 -15 39.5t-42 5.5q-22 -4 -33 -12q-45 -27 -67 -45q-160 -125 -224 -193q-4 -4 -8.5 -7.5t-10 -7.5t-9.5 -7q0 13 10 43l49 133q12 31 14 53q1 7 1 14q0 37 -44 39h-4q-29 0 -69 -24q-106 -74 -207 -183l-205 -219q-6 -8 -33 -26l10 32l93 189q27 47 81 140t80 140 q11 17 23 50q-30 25 -60 25h-1q-30 0 -56 -27q-56 -63 -78 -107q-25 -46 -143 -281q-42 -86 -63 -217z" />
<glyph unicode="n" horiz-adv-x="698" d="M23 27q-3 -11 -3 -20q0 -41 52 -44q37 0 61 21l27 30q101 119 137 158q45 49 73 77.5t71.5 66t84.5 63.5q1 0 15.5 8.5t25.5 15.5q-9 -39 -16 -61q-8 -23 -27.5 -80t-29.5 -88q-24 -70 -27 -149q0 -24 7.5 -34t31.5 -16q17 -4 32 -4q40 0 74 27q55 47 80 70 q74 71 159.5 159.5t152.5 153.5q5 4 15 16t15 17q-28 16 -40 15.5t-36 -21.5q-48 -42 -110 -92.5t-104.5 -88.5t-104.5 -98q-7 -7 -61 -53q3 30 4 33q4 17 22.5 82t26.5 100q16 62 18 94v5q0 53 -57 59q-8 1 -15 1l-63 -20q-15 -8 -40.5 -25.5t-31.5 -21.5 q-90 -67 -221 -201q-16 -16 -31 -28q39 111 148 317q-30 6 -42.5 4.5t-27.5 -14.5q-6 -6 -26 -31q-115 -149 -189 -313q-18 -43 -30 -90z" />
<glyph unicode="o" horiz-adv-x="528" d="M41 8v-6q0 -65 65 -82q36 -8 69 -8q91 0 157 65q53 53 96 144l61 139q98 11 201 62q118 56 144 72t43 40q-29 5 -33 4q-31 -7 -53 -18q-48 -17 -136.5 -49.5t-105.5 -38.5q-27 -9 -57 -15v80q0 52 -50 62q-26 4 -47 4q-15 0 -28 -2q-83 -11 -150 -88q-92 -106 -143 -226 q-27 -68 -33 -139zM160 31q32 113 37 127q49 131 122 215q31 31 64 51q12 7 22 7q20 0 27 -32q1 -8 2 -24t2 -25q-60 -10 -61 -10q-24 -4 -29 -25q-2 -17 21 -32q10 -9 22 -17q-37 -130 -131 -235q-1 -1 -11.5 -13t-13.5 -14.5t-12 -11t-14.5 -11.5t-14.5 -7t-18 -5 q-16 16 -16 42q0 9 2 20z" />
<glyph unicode="p" horiz-adv-x="614" d="M-281 -612q32 -21 57 -21q36 0 60 41q2 2 5 8.5t5 8.5q97 179 297 479q3 5 7 10.5t9 11t7 8.5q36 -15 51 -16.5t45 8.5q47 21 57 23q141 48 242 168q22 25 53 49q46 34 61.5 49t61.5 49q8 6 76.5 55t95.5 70q1 1 5.5 5t6 5.5t5 6.5t3 8t-0.5 10q-18 7 -51 -16 q-47 -32 -100.5 -66.5t-100.5 -65.5q-4 -3 -4 -2q2 3 1 3t-7 -3q1 15 4.5 35t3.5 23q-2 35 -17.5 51.5t-50.5 19.5h-9q-49 0 -93 -28q-66 -47 -103 -82q-142 -130 -268 -293l-22 -27q1 18 24 70q143 282 170 340q23 36 19 55q-22 11 -33 9t-23 -19q-6 -10 -23.5 -34 t-25.5 -38q-39 -62 -81 -134.5t-70 -123t-76.5 -143t-65.5 -125t-73 -144t-66 -130.5q-12 -24 -23 -51.5t-24 -62.5t-21 -54zM201 -25q44 87 184 225t205 162q4 -20 2 -28q-11 -34 -21 -51q-6 -11 -24 -38.5t-27 -43.5q-25 -39 -80 -72q-192 -125 -215 -141q-14 -7 -24 -13z " />
<glyph unicode="q" horiz-adv-x="735" d="M78 37q-1 -7 -1 -13q0 -31 17 -52q20 -24 60 -29q18 -2 35 -2q57 0 102 26q11 6 32 19.5t33 19.5q2 1 8 5.5t9 4.5h12q-13 -32 -16 -39q-36 -83 -131 -313q-25 -68 -27 -119v-10q0 -64 37 -87q22 -15 56 -15q24 0 54 8q21 4 58 33q14 10 39 39q101 131 155 284 q51 143 51 259q0 25 -2 48q-1 9 1 26.5t2 23.5q21 6 36 12q6 2 28 10t35.5 14t24.5 13q33 23 92.5 55.5t96.5 60.5q27 19 61 62q26 26 11 55q-28 -9 -60 -41q-52 -46 -113.5 -84t-100.5 -56t-130 -58q-26 -10 -36.5 -26t-8.5 -44q1 -13 1 -26q0 -80 -40 -177 q-65 -163 -178 -330q-2 -4 -5.5 -7.5t-9 -9.5t-10.5 -11q6 67 41 170q112 294 275 600q16 28 42 81.5t31 63.5q8 15 1.5 25.5t-25.5 13.5q-6 1 -13 1q-34 0 -57 -29q-227 -280 -235 -289q-91 -109 -168 -162q-26 -15 -43 -27q-7 14 -7 41q0 10 1 23q9 85 45 172 q62 148 145 223q35 31 70 51q14 8 25 8q20 0 24 -32q1 -20 1 -27t-2 -26.5t-3 -26.5q0 -2 -12 -43q25 -9 34.5 -7t18.5 17q24 44 24 94q0 14 -2 29q-6 39 -43 51q-21 8 -41 8q-15 0 -28 -4q-84 -15 -162 -90q-133 -125 -193 -323q-20 -79 -22 -115z" />
<glyph unicode="r" horiz-adv-x="659" d="M188 494q-4 -16 -4 -31q0 -60 60 -92q18 -10 61 -23q7 -3 15.5 -5t18.5 -4l15 -3q35 -11 35 -44v-5q-4 -26 -8 -35q-5 -12 -18.5 -41.5t-20.5 -46.5q-2 -5 -16.5 -39.5t-20.5 -54.5q-4 -16 -4 -31q1 -27 15 -49q22 -33 71 -39q18 -2 34 -2q56 0 99 26q50 29 142 117 l215 215q25 23 57 58q2 2 12 28q-21 11 -47 -4q-36 -30 -39 -33q-196 -168 -366 -288l-43 -27q-10 19 4 51q8 25 25.5 76.5t25.5 77.5q8 23 7 43q0 59 -67 90q-10 4 -29 10t-28 10q-49 19 -61 35l98 105q67 73 94 172q8 32 6 49q0 49 -53 55h-8l-68 -24q-147 -102 -209 -291 v-6zM314.5 504q-0.5 8 2 18t3.5 14.5t6 17t6 15.5q53 127 125 197q1 -10 1 -20q0 -59 -34 -127q-40 -79 -107 -132q-2 9 -2.5 17z" />
<glyph unicode="s" horiz-adv-x="425" d="M-41 -485q3 -59 68 -68q12 -1 24 -1q68 0 123 44q58 44 92 125q75 179 75 358q0 19 -1 39v7q0 45 35 71q26 21 78 61t77 60l197 162q2 2 7.5 7t8.5 8t6.5 8.5t4.5 11t0 12.5q-11 6 -23 6q-18 0 -39 -14q-262 -188 -327 -232q-6 -4 -18.5 -11t-18.5 -11q-1 8 -7 41.5 t-7.5 44.5t-5 39.5t-4.5 44.5t-1 39t2 43q6 75 62 131l20 20q-9 3 -19 3q-23 0 -49 -17q-85 -55 -100 -158q-6 -31 -6 -96q4 -128 10 -193v-7q0 -33 -24 -60q-90 -111 -105 -131q-101 -150 -125 -271q-10 -62 -10 -116zM57 -430q22 120 99 248q31 51 47 67l4 -16 q-15 -71 -21.5 -102.5t-23.5 -87t-37 -97.5q-15 -35 -27.5 -49.5t-40.5 -32.5q-4 10 -4 27.5t4 42.5z" />
<glyph unicode="t" horiz-adv-x="425" d="M72 29q-7 -22 -7 -38q0 -19 9 -30q16 -21 67 -22q38 0 54 8q51 15 92 41q88 56 139 102q21 18 41.5 37t53 52.5t40.5 41.5q41 43 123 133q27 22 21 45q-8 3 -16 3t-13.5 -1.5t-13 -6.5t-10.5 -7.5t-11 -9.5q-124 -102 -338 -277q-19 -16 -55.5 -40t-46.5 -31q-3 0 -11 4 q14 38 17 49q26 63 62.5 136.5t62.5 120.5t76 136t69 123q14 22 41 25q1 0 11.5 2t14.5 3t12 4t14 7.5t12 11.5q-42 11 -62 19q51 84 55 92q2 4 24 37t26 55q-25 6 -31 5t-16 -11q-18 -12 -35 -33q-49 -62 -86 -115q-28 -36 -40.5 -43t-60.5 -16q-68 -12 -98 -16 q-6 -2 -12.5 -5t-14.5 -8t-14 -8q16 -12 49 -12q14 0 31 2q34 4 55 4q15 0 23 -2q-2 -2 -10 -15.5t-13 -19.5q-152 -219 -223 -379q-38 -85 -57 -153z" />
<glyph unicode="u" horiz-adv-x="743" d="M23 -4q-3 -34 11 -50.5t48 -19.5q9 -1 18 -1q54 0 93 32q53 43 102 90l69.5 69.5t80.5 81t69 68.5q1 1 61 49q-3 -14 -7 -25t-11 -25t-8 -17q-73 -165 -80 -182q-12 -32 -1.5 -49t44.5 -23q16 -3 31 -3q55 0 104 34q66 47 98 75q43 39 123 113t97 90q75 67 108 98 q1 1 8 7.5t7 7t4 8.5t0 12q-22 17 -48 -2q-2 -1 -28 -22l-400 -303q-1 -1 -6 -5t-7.5 -5.5t-8.5 -3.5t-12 -1q15 44 28 76q12 29 36 88.5t36 89.5q9 25 -2 39t-37 14q-34 0 -65 -24q-120 -91 -148 -115q-42 -36 -117 -103t-100 -89q-40 -40 -78 -62q-1 4 -1 10q0 23 11 64 q20 74 95 188q16 23 33.5 50.5t38 61t32.5 52.5q-24 24 -57 8q-27 -14 -43 -32q-124 -124 -201 -316q-17 -40 -20 -98z" />
<glyph unicode="v" horiz-adv-x="583" d="M61 33q6 -64 68 -84q29 -9 59 -9q54 0 113 29q76 38 143 119q80 92 148 213q81 147 192 442q18 53 23 72q5 23 -1.5 29t-35.5 6l-12 -25q-8 -18 -113 -256q-84 -184 -217 -348q-99 -122 -184 -180q-33 -23 -47 -25q-14 34 -14 69q0 21 5 42q20 92 72 178q26 48 66 109 q1 3 5 9t5 9t2.5 10t-2.5 11q-26 14 -51 -7q-8 -4 -33 -24q-118 -127 -176 -289q-15 -40 -15 -85v-15z" />
<glyph unicode="w" horiz-adv-x="866" d="M43 20q-1 -6 -1 -11q0 -46 50 -54q22 -4 43 -4q33 0 62 10q47 17 110 80q3 2 9 10t12.5 12t15.5 3q8 -45 36 -71.5t73 -29.5q35 0 51 4q111 26 198 107q227 214 304 602q4 15 3 39q0 16 -1 37q-3 18 -21 32q-22 18 -39 -2q5 -15 5 -37q0 -29 -9 -69q-92 -352 -364 -588 q-37 -34 -97 -57q-2 4 -7 11t-7 11q-6 21 -6 45q0 15 2 31q18 100 74 221q20 34 18 54q-16 6 -29 6q-27 0 -43 -23q-46 -58 -57 -76q-67 -114 -186 -229q-7 -7 -62 -51q-5 -3 -37 -19q4 48 9 62q26 80 49 127q18 35 54 99t46 83q23 32 21 49q-13 7 -26 7q-24 0 -46 -25 q-123 -150 -184 -297q-16 -41 -23 -99z" />
<glyph unicode="x" horiz-adv-x="622" d="M41 -27q20 -18 44 -18q17 0 36 8q26 9 53 29l123 98q15 11 41 33l27 -41q16 -24 56.5 -86.5t63.5 -95.5q12 -18 25 -31q17 -15 36 -15q16 0 34 11q1 8 -1 17t-4 13.5t-7.5 14.5t-6.5 12l-123 230q-9 15 -18 36q76 74 153 144q14 13 152 141q-29 9 -59 -6l-39 -25 q-110 -82 -205 -149q-18 -15 -39 -27l-21 31q-24 44 -68 126t-52 97q-28 39 -33 45q-12 16 -33 19q-34 8 -49 -17q13 -30 84 -180q6 -14 38.5 -82.5t49.5 -107.5l-49 -39q-29 -23 -87.5 -70t-86.5 -70q-2 -2 -8.5 -7t-9 -7.5t-7 -7.5t-7 -10.5t-3.5 -12.5z" />
<glyph unicode="y" horiz-adv-x="708" d="M102 49q3 -34 18.5 -50t49.5 -22q23 -3 49 0q48 5 96 43q5 5 40.5 34t52.5 46l129 136q1 0 6 -5q-15 -34 -27 -53q-137 -297 -207 -497q-75 -214 -100 -377q0 -1 -3 -14.5t-3 -20.5q0 -24 24 -27q19 -3 28.5 3.5t18.5 29.5q10 26 65 161t83 208q169 438 221 555l63 144 t64 144q10 23 18 58q5 31 -24 37q-7 1 -14 1q-38 0 -62 -30q-64 -82 -186 -229q-115 -133 -250 -244l-8 -8t-9.5 -8.5t-10 -4t-13.5 -0.5q-1 9 -1 19q0 51 26 131q22 74 69 197q15 44 12 57q-35 14 -52 9.5t-34 -32.5q-6 -6 -14 -22q-70 -140 -104 -268q-11 -45 -11 -101z " />
<glyph unicode="z" horiz-adv-x="899" d="M-209 -928q-1 -8 -1 -15q0 -64 73 -75q11 -1 22 -1q68 0 131 44q11 7 21 14.5t21 17t18.5 16t19 18.5t17.5 18t18.5 20t16.5 18.5t17.5 20.5t16.5 19q230 268 336 616q13 43 43 64q36 26 279.5 236.5t271.5 232.5q2 1 8 5.5t8.5 6.5t7.5 7t7.5 10t5.5 13t4 17 q-42 -18 -176 -127t-267.5 -222t-166.5 -132q-3 18 -6 27q-12 45 -39.5 67t-73.5 25h-13q-47 0 -92 -19q-4 -1 -8 -1.5t-10.5 -1t-11.5 -1.5q17 29 18 31q73 115 113 211q16 45 20 72q1 8 1 16q0 48 -48 66q-23 9 -53 12q-5 1 -10 1q-45 0 -101 -40l-12 -21q0 -8 3.5 -11 t11 -0.5t13.5 6t15 9t12 7.5q1 0 6.5 2t7.5 2.5t7 2t8 1.5t7 0.5t7 -0.5t6.5 -3t6.5 -5q4 -13 4 -27q0 -22 -10 -45q-31 -71 -52 -104q-35 -54 -101.5 -153t-84.5 -126q-2 -3 -18 -35q17 -17 22 -18q25 -11 51 -11q37 0 74 23q32 20 160 90q6 3 26 8q11 -18 11 -39 q0 -13 -4 -26q-1 -3 -23 -84q-10 -38 -49 -68q-147 -117 -219 -182q-173 -156 -277 -360q-39 -77 -47 -140zM-117 -969q-4 14 -4 27q0 20 8 39q62 138 78 164q121 214 342 387q-3 -7 -41 -86q-130 -253 -219 -377q-59 -79 -119 -131q-2 -1 -8.5 -7.5t-10 -9t-11 -5 t-15.5 -1.5z" />
<glyph unicode="{" horiz-adv-x="983" d="M205 354l33 -18q8 -2 24 -2q52 -6 63 -24.5t-6 -69.5l-24 -69t-26 -74.5t-20 -68t-13 -73.5q-9 -74 3 -128t45 -89.5t76 -57t105 -38.5q18 -5 30 -6.5t28 0t27 13t17 32.5q-73 28 -92 55.5t-18 109.5q0 35 3 74t8 86.5t7 73.5q5 57 6 107t-23 99t-75 83q10 9 40 35t46 40 q90 84 135.5 176.5t34.5 204.5q-2 24 -1.5 64.5t-0.5 64.5q-9 119 104 164q23 9 140 43q-10 2 -20.5 6t-16.5 6t-10 1q-149 -10 -254 -90t-123 -230q-24 -202 -178 -387q-17 -20 -42.5 -62t-31.5 -51z" />
<glyph unicode="|" horiz-adv-x="649" d="M313 248q1 -18 4 -63.5t5 -69t6 -61t8.5 -69t11.5 -61.5q12 -24 24.5 -30.5t25.5 3.5t30 37q16 23 16 66q0 65 -4 96q-11 157 -10 251.5t6 255t4 251.5q0 103 -4 315q0 5 -0.5 15.5t-1 17.5t-3.5 17t-9 18q-37 -3 -52.5 -14.5t-21.5 -40.5q-6 -17 -16 -90 q-38 -464 -19 -844z" />
<glyph unicode="}" horiz-adv-x="1120" d="M205 -362q40 -26 57.5 -29.5t54.5 10.5q72 30 191 88q167 87 207 264q21 101 28 232q6 119 91 180q12 8 24.5 19t27.5 26.5t23 22.5l6 22q-34 3 -58.5 16.5t-38 27.5t-24 42.5t-13.5 44t-9 51.5q-4 17 -4 72q-10 235 -10 283q-3 82 -72 116q-96 47 -219 13q8 -3 15.5 -7 t12 -6t7.5 -2q102 -6 120.5 -31t-8.5 -122q-47 -183 -55 -277q-9 -104 43 -162.5t156 -64.5q9 -1 19 -1t22 0.5t18 0.5q-29 -38 -72 -61q-109 -58 -167.5 -141t-67.5 -206q-19 -244 -219 -366q-10 -6 -39 -25.5t-47 -29.5z" />
<glyph unicode="~" horiz-adv-x="1413" d="M206 212.5q-1 -17.5 8 -32t30 -16.5q23 -2 31.5 10.5t5.5 29t0 32.5q11 101 116 139q14 6 27 7t25.5 -4.5t21 -10t21 -16.5t17.5 -18t17 -20q67 -86 193 -141q124 -57 220.5 -40t163 91t103.5 199q2 8 2 18t-1 23t-1 20l-22 6q-4 -7 -13.5 -22.5t-15.5 -27t-10 -23.5 q-40 -102 -160 -174q-68 -41 -121 -4q-10 7 -45.5 31.5t-58.5 42t-43 36.5q-99 96 -225 113q-106 12 -193.5 -52.5t-91.5 -160.5q0 -18 -1 -35.5z" />
<glyph unicode="&#xa1;" horiz-adv-x="1007" d="M309 -182q-11 -42 37 -45q39 0 55 30q1 2 23 52q135 341 244 725q7 24 13 50.5t13 60t11 50.5q2 45 -16.5 61.5t-67.5 10.5q-24 -3 -37 -31q-44 -89 -66 -174q-26 -98 -84.5 -317t-89.5 -336q-29 -109 -35 -137zM666 1012q3 -24 20 -27q32 -11 63.5 -2t47.5 47 q11 29 3 44.5t-40 19.5h-21h-14q-34 -4 -49.5 -26t-9.5 -56z" />
<glyph unicode="&#xab;" horiz-adv-x="1206" d="M204.5 364q-1.5 -13 20.5 -32q32 -27 49 -33q183 -82 304 -131q14 -5 29.5 -8t40 -5t30.5 -3q27 -4 41 16q3 23 -23 41q-48 26 -59 31l-129 51l-129 51q-7 2 -27 18q12 7 38 23t40 23q26 14 90 48.5t98 53.5q2 1 6.5 3t6.5 3t6 4t6 5.5t4 7t2 10.5q-3 1 -11 4.5t-13 3.5 q-32 -5 -43 -10q-64 -26 -180.5 -75.5t-161.5 -68.5l-11 -4q-23 -14 -24.5 -27zM587.5 364q-1.5 -13 20.5 -32q30 -26 49 -33q204 -90 306 -131q13 -5 28 -8t39.5 -5t30.5 -3q26 -3 43 16q0 23 -25 41q-51 28 -57 31q-35 14 -123.5 48t-136.5 54q-4 1 -7.5 3.5t-9.5 7 l-10 7.5q15 8 41 24t39 22q33 19 97.5 53t91.5 49q1 0 5 2t5.5 3t5 3t4.5 4t3.5 5t3.5 7t1 9q-3 1 -11 4.5t-11 3.5q-31 -4 -45 -10q-57 -23 -170.5 -71.5t-171.5 -72.5q-1 -1 -4.5 -2t-4.5 -2q-25 -14 -26.5 -27z" />
<glyph unicode="&#xad;" d="M311 344q13 -40 45 -43q54 -6 56 -6q213 -13 244.5 -14t244.5 2q31 1 89.5 7t76.5 7q42 12 51.5 35t-10.5 67q-9 24 -39 27q-105 13 -188 8q-111 -5 -197 -16.5t-199 -16.5q-24 -2 -71 -4t-70 -4q-45 -5 -33 -49z" />
<glyph unicode="&#xb7;" horiz-adv-x="659" d="M307 356q-6 -38 31 -47q15 0 31 -2q2 1 10.5 3.5t17 6.5t13.5 9q21 21 39 57q10 22 3 33t-32 16q-42 7 -73.5 -16t-39.5 -60z" />
<glyph unicode="&#xbb;" horiz-adv-x="1351" d="M205 172q4 -2 17 -11t20 -11q47 -15 94 6l256 123q18 9 100 59q6 4 12.5 9t13.5 12t11 10q-16 33 -33 43l-34 18q-116 45 -289 115q-13 5 -54 10q-31 4 -38 -16q12 -19 19 -25.5t24 -13.5q27 -13 110 -49q8 -3 41.5 -16t55.5 -22.5t44 -21.5q-9 -4 -25 -13.5t-24 -12.5 q-18 -9 -100 -50.5t-125 -64.5q-26 -13 -37 -19.5t-29 -22.5t-30 -36zM623 172q4 -2 16.5 -11t19.5 -11q49 -15 95 6l256 123q21 11 57.5 33t44.5 26q12 8 35 31q-16 33 -33 43q-5 3 -35 18q-96 37 -288 115q-15 6 -54 10q-30 4 -39 -16q12 -19 19 -25.5t24 -13.5 q35 -17 113 -49q110 -44 139 -60q-9 -5 -24.5 -14t-22.5 -12l-227 -115q-24 -12 -36 -19t-29.5 -23t-30.5 -36z" />
<glyph unicode="&#xbf;" horiz-adv-x="1097" d="M309 -154q12 -91 103 -100q58 -6 110 12q101 41 168 103q26 23 45 55q22 30 8 53q-21 12 -47 -14q-69 -67 -190 -127q-8 -4 -25.5 -12t-23.5 -11q-17 22 -13 52q7 35 15 59q35 115 129 234q33 41 102 114q69 69 80 148q4 29 17.5 81t17.5 72q1 5 4.5 23t4.5 25t3.5 22.5 t2.5 25v22.5t-2 25t-5 23q-1 4 -3.5 18t-7.5 21.5t-16 11.5q-39 12 -63 2q-21 -8 -23 -18q-6 -13 -19 -39.5t-21 -47t-11 -40.5q-3 -26 -14.5 -111t-16.5 -131q-6 -38 -32 -67q-99 -108 -144 -164q-72 -87 -112 -191q-28 -73 -21 -129zM743 952q-2 -44 29 -65t72 -2 q24 10 35 41q21 58 6.5 77t-72.5 19q-39 1 -53.5 -14t-16.5 -56z" />
<glyph unicode="&#xd7;" horiz-adv-x="1001" d="M204 141q0 -15 19 -32q4 -5 35 -27q17 10 47.5 26t48.5 26t42.5 25.5t43.5 30.5l97 72q23 -13 34 -22q66 -52 72 -56q40 -25 61 -27q13 -1 27 3q-6 33 -23.5 59.5t-51 60t-42.5 44.5q69 55 109 88q19 15 61 53q23 26 0 55q-28 32 -67 21q-65 -20 -142 -70 q-87 -56 -92 -59q-19 7 -50 23.5t-58.5 27t-55.5 10.5q-3 -29 10 -50t37 -41.5t33 -33.5q-17 -13 -51 -43q-44 -33 -127 -129q-17 -20 -17 -35z" />
<glyph unicode="&#xf7;" horiz-adv-x="1046" d="M209 279q13 -40 45 -43q4 0 24 -3.5t31 -3.5q52 -3 105 -6.5t74 -5t42.5 -3t33.5 -1t23 1t34 2.5q31 1 89 7t76 7q42 12 51.5 35.5t-10.5 67.5q-8 23 -39 26q-92 0 -134.5 -2t-54 -4.5t-65 -7.5t-151.5 -10q-24 -2 -71 -4t-70 -4q-45 -5 -33 -49zM461 86q-6 -38 31 -47 q14 0 30 -2q2 1 10.5 3.5t17 6t13.5 8.5q20 20 39 58q10 22 3 33t-32 16q-42 7 -73 -16t-39 -60zM461 463q-6 -38 31 -47q14 0 30 -2q2 1 10.5 3.5t17 6t13.5 8.5q21 21 39 57q20 41 -29 50q-42 7 -73 -16t-39 -60z" />
<glyph unicode="&#x2000;" horiz-adv-x="682" />
<glyph unicode="&#x2001;" horiz-adv-x="1365" />
<glyph unicode="&#x2002;" horiz-adv-x="682" />
<glyph unicode="&#x2003;" horiz-adv-x="1365" />
<glyph unicode="&#x2004;" horiz-adv-x="455" />
<glyph unicode="&#x2005;" horiz-adv-x="341" />
<glyph unicode="&#x2006;" horiz-adv-x="227" />
<glyph unicode="&#x2007;" horiz-adv-x="227" />
<glyph unicode="&#x2008;" horiz-adv-x="170" />
<glyph unicode="&#x2009;" horiz-adv-x="273" />
<glyph unicode="&#x200a;" horiz-adv-x="75" />
<glyph unicode="&#x2010;" d="M311 344q13 -40 45 -43q54 -6 56 -6q213 -13 244.5 -14t244.5 2q31 1 89.5 7t76.5 7q42 12 51.5 35t-10.5 67q-9 24 -39 27q-105 13 -188 8q-111 -5 -197 -16.5t-199 -16.5q-24 -2 -71 -4t-70 -4q-45 -5 -33 -49z" />
<glyph unicode="&#x2011;" d="M311 344q13 -40 45 -43q54 -6 56 -6q213 -13 244.5 -14t244.5 2q31 1 89.5 7t76.5 7q42 12 51.5 35t-10.5 67q-9 24 -39 27q-105 13 -188 8q-111 -5 -197 -16.5t-199 -16.5q-24 -2 -71 -4t-70 -4q-45 -5 -33 -49z" />
<glyph unicode="&#x2012;" d="M311 344q13 -40 45 -43q54 -6 56 -6q213 -13 244.5 -14t244.5 2q31 1 89.5 7t76.5 7q42 12 51.5 35t-10.5 67q-9 24 -39 27q-105 13 -188 8q-111 -5 -197 -16.5t-199 -16.5q-24 -2 -71 -4t-70 -4q-45 -5 -33 -49z" />
<glyph unicode="&#x2013;" horiz-adv-x="1432" d="M311 344q17 -40 57 -43q68 -6 70 -6q269 -13 308.5 -14t307.5 2q39 1 113 7t96 7q53 12 65 35t-13 67q-11 24 -49 27q-132 13 -237 8q-140 -5 -248 -16.5t-251 -16.5q-30 -2 -89 -4t-88 -4q-57 -5 -42 -49z" />
<glyph unicode="&#x2014;" horiz-adv-x="2455" d="M314 344q33 -40 114 -43q136 -6 141 -6q536 -13 615.5 -14t615.5 2q79 1 226 7t193 7q105 12 129 35t-26 67q-23 24 -98 27q-265 13 -474 8q-280 -5 -496.5 -16.5t-500.5 -16.5q-61 -2 -179.5 -4t-176.5 -4q-113 -5 -83 -49z" />
<glyph unicode="&#x201a;" horiz-adv-x="184" d="M309 -117q-11 -47 41 -47q30 0 45 27q4 6 26.5 40t33.5 52q20 34 32 63q11 33 -24 41q-49 10 -78 -22q-53 -61 -76 -154z" />
<glyph unicode="&#x201e;" horiz-adv-x="184" d="M309 -117q23 93 76 154q29 32 78 22q35 -8 24 -41q-12 -29 -32 -63q-11 -18 -33.5 -52t-26.5 -40q-15 -27 -45 -27q-52 0 -41 47z" />
<glyph unicode="&#x2026;" horiz-adv-x="1220" d="M307 -25q-6 -38 31 -47q15 0 31 -2q2 1 10.5 3.5t17 6.5t13.5 9q21 21 39 57q10 22 3 33t-32 16q-42 7 -73.5 -16t-39.5 -60zM594 -10q-6 -38 31 -47q14 0 30 -2q2 1 10.5 3.5t17 6t13.5 8.5q21 21 39 57q20 41 -28 50q-42 7 -73.5 -16t-39.5 -60zM868 -4q-6 -38 31 -47 q15 0 31 -2q2 1 10.5 3.5t17 6t13.5 8.5q20 20 39 58q10 22 3 33t-32 16q-42 7 -73.5 -16t-39.5 -60z" />
<glyph unicode="&#x202f;" horiz-adv-x="273" />
<glyph unicode="&#x2039;" horiz-adv-x="821" d="M204.5 364q-1.5 -13 20.5 -32q32 -27 49 -33q183 -82 304 -131q14 -5 29.5 -8t40 -5t30.5 -3q27 -4 41 16q3 23 -23 41q-48 26 -59 31l-129 51l-129 51q-7 2 -27 18q12 7 38 23t40 23q26 14 90 48.5t98 53.5q2 1 6.5 3t6.5 3t6 4t6 5.5t4 7t2 10.5q-3 1 -11 4.5t-13 3.5 q-32 -5 -43 -10q-64 -26 -180.5 -75.5t-161.5 -68.5l-11 -4q-23 -14 -24.5 -27z" />
<glyph unicode="&#x203a;" horiz-adv-x="933" d="M205 172q4 -2 17 -11t20 -11q47 -15 94 6l256 123q18 9 100 59q6 4 12.5 9t13.5 12t11 10q-16 33 -33 43l-34 18q-116 45 -289 115q-13 5 -54 10q-31 4 -38 -16q12 -19 19 -25.5t24 -13.5q27 -13 110 -49q8 -3 41.5 -16t55.5 -22.5t44 -21.5q-9 -4 -25 -13.5t-24 -12.5 q-18 -9 -100 -50.5t-125 -64.5q-26 -13 -37 -19.5t-29 -22.5t-30 -36z" />
<glyph unicode="&#x205f;" horiz-adv-x="341" />
<glyph unicode="&#x25fc;" horiz-adv-x="583" d="M0 0v584h584v-584h-584z" />
</font>
</defs>
</svg>
